M48
INCH,TZ
T1C0.016
T2C0.031
T3C0.032
T4C0.037
T5C0.047
T6C0.120
%
G90
G05
T1
X28410Y-41164
X28844Y-42569
X28897Y-33732
X29012Y-46520
X29200Y-42497
X29731Y-36906
X30023Y-49985
X30211Y-45237
X31038Y-30775
X31304Y-29789
X31948Y-43982
X32441Y-40581
X33053Y-30961
X33102Y-39955
X33425Y-39985
X33472Y-40331
X33486Y-32357
X33562Y-33132
X33604Y-39157
X33704Y-49768
X33712Y-35605
X33968Y-37538
X34233Y-34704
X34754Y-33607
X34808Y-57488
X35220Y-36906
X35435Y-34442
X35494Y-39202
X35536Y-40783
X35537Y-42854
X36101Y-36848
X36415Y-36251
X36686Y-36439
X36928Y-36135
X37382Y-47439
X37531Y-40169
X37658Y-37860
X38046Y-40910
X38264Y-49961
X38614Y-48364
X38870Y-49174
X39006Y-37680
X39285Y-37374
X39859Y-52796
X40012Y-50945
X40016Y-39814
X40093Y-36345
X40368Y-41386
X40540Y-52024
X40550Y-42289
X40759Y-50070
X41097Y-50483
X41358Y-34612
X41619Y-29612
X41651Y-54777
X41965Y-52306
X42006Y-32891
X42714Y-54109
X42823Y-37644
X43866Y-37335
X44160Y-51843
X44415Y-36909
X45230Y-50499
X45401Y-37587
X45826Y-28803
X46984Y-30209
X47303Y-60689
X47367Y-46598
X47627Y-45230
X47692Y-58688
X47708Y-44790
X48351Y-60976
X48359Y-46296
X48480Y-36177
X48516Y-51302
X48791Y-46532
X48844Y-36552
X49265Y-46801
X49306Y-44585
X49760Y-45477
X49981Y-54525
X49987Y-45783
X50075Y-45046
X50211Y-55382
X50223Y-54774
X50566Y-54352
X50618Y-39035
X50626Y-58298
X50797Y-48552
X50888Y-39308
X51172Y-58551
X51468Y-37443
X51661Y-61235
X51867Y-52138
X51870Y-50606
X51904Y-37578
X51972Y-45606
X52800Y-58701
X53115Y-58674
X53126Y-58283
X53336Y-56651
X53342Y-59452
X53440Y-58760
X54047Y-57108
X54111Y-45610
X54156Y-57674
X54448Y-38831
X54463Y-32167
X54539Y-36030
X54720Y-31904
X54768Y-56981
X54906Y-35435
X54983Y-46355
X55035Y-56783
X55612Y-52279
X55860Y-54762
X55874Y-58189
X56459Y-57582
X56563Y-32244
X56812Y-54511
X56981Y-49419
X56984Y-39187
X57656Y-49910
X57891Y-45598
X58154Y-51118
X59011Y-51138
X59108Y-56783
X59592Y-58785
X59837Y-57128
X59932Y-46170
X60059Y-57840
X60360Y-45876
X60367Y-46273
X60571Y-45559
X62104Y-57588
X63397Y-46519
X64204Y-40365
X64483Y-40128
X64745Y-44548
X65013Y-44813
X65076Y-35989
X65587Y-37815
X65730Y-57243
X67904Y-33907
X68339Y-47351
X68601Y-29780
X68654Y-30764
X68742Y-47384
X69700Y-47283
X70298Y-47828
X71413Y-30116
X71491Y-29116
X71764Y-43817
X72420Y-34012
X72788Y-27864
X73562Y-36192
T2
X26575Y-28496
X26575Y-31496
X26575Y-56102
X27559Y-43307
X27575Y-28496
X27575Y-31496
X28449Y-55118
X28449Y-58118
X28575Y-28496
X28575Y-31496
X29449Y-55118
X29449Y-58118
X29575Y-28496
X29575Y-31496
X30449Y-55118
X30449Y-58118
X30575Y-28496
X30575Y-31496
X31449Y-55118
X31449Y-58118
X31575Y-28496
X31575Y-31496
X32449Y-55118
X32449Y-58118
X32480Y-43307
X32575Y-28496
X32575Y-31496
X33449Y-55118
X33449Y-58118
X33575Y-28496
X33575Y-31496
X34449Y-55118
X34449Y-58118
X36417Y-40354
X36417Y-41354
X36417Y-42354
X36417Y-43354
X36417Y-44354
X36417Y-45354
X36417Y-46354
X36417Y-47354
X36417Y-48354
X36417Y-49354
X36417Y-59252
X36417Y-60039
X37205Y-59252
X37205Y-60039
X37402Y-26575
X37402Y-27362
X37402Y-28150
X37402Y-28937
X37402Y-29724
X37402Y-30512
X37402Y-31299
X37402Y-32087
X37402Y-32874
X37402Y-33661
X37402Y-34449
X37402Y-35236
X37402Y-36024
X37402Y-51181
X37992Y-59252
X37992Y-60039
X38189Y-26575
X38189Y-27362
X38189Y-28150
X38189Y-28937
X38189Y-29724
X38189Y-30512
X38189Y-31299
X38189Y-32087
X38189Y-32874
X38189Y-33661
X38189Y-34449
X38189Y-35236
X38189Y-36024
X38780Y-59252
X38780Y-60039
X39417Y-40354
X39417Y-41354
X39417Y-42354
X39417Y-43354
X39417Y-44354
X39417Y-45354
X39417Y-46354
X39417Y-47354
X39417Y-48354
X39417Y-49354
X39567Y-59252
X39567Y-60039
X40354Y-26575
X40354Y-27575
X40354Y-28575
X40354Y-29575
X40354Y-30575
X40354Y-31575
X40354Y-32575
X40354Y-33575
X40354Y-34575
X40354Y-35575
X40354Y-53102
X40354Y-56102
X40354Y-59252
X40354Y-60039
X41142Y-59252
X41142Y-60039
X41339Y-37402
X41354Y-53102
X41354Y-56102
X41929Y-59252
X41929Y-60039
X42354Y-53102
X42354Y-56102
X42717Y-59252
X42717Y-60039
X43307Y-38386
X43307Y-39386
X43307Y-40386
X43307Y-41386
X43307Y-42386
X43307Y-43386
X43307Y-44386
X43307Y-45386
X43354Y-26575
X43354Y-27575
X43354Y-28575
X43354Y-29575
X43354Y-30575
X43354Y-31575
X43354Y-32575
X43354Y-33575
X43354Y-34575
X43354Y-35575
X43354Y-53102
X43354Y-56102
X43504Y-59252
X43504Y-60039
X44291Y-59252
X44291Y-60039
X44354Y-53102
X44354Y-56102
X45079Y-59252
X45079Y-60039
X45276Y-47244
X45354Y-53102
X45354Y-56102
X45866Y-59252
X45866Y-60039
X46307Y-38386
X46307Y-39386
X46307Y-40386
X46307Y-41386
X46307Y-42386
X46307Y-43386
X46307Y-44386
X46307Y-45386
X46354Y-53102
X46354Y-56102
X46654Y-59252
X46654Y-60039
X47244Y-26528
X47244Y-29528
X47244Y-31449
X47244Y-34449
X47354Y-53102
X47354Y-56102
X47441Y-59252
X47441Y-60039
X48228Y-59252
X48228Y-60039
X48244Y-26528
X48244Y-29528
X48244Y-31449
X48244Y-34449
X49016Y-59252
X49016Y-60039
X49213Y-55118
X49244Y-26528
X49244Y-29528
X49244Y-31449
X49244Y-34449
X49803Y-59252
X49803Y-60039
X50244Y-26528
X50244Y-29528
X50244Y-31449
X50244Y-34449
X50591Y-59252
X50591Y-60039
X51181Y-38339
X51181Y-41339
X51181Y-44244
X51181Y-47244
X51244Y-26528
X51244Y-29528
X51244Y-31449
X51244Y-34449
X51378Y-59252
X51378Y-60039
X52165Y-50150
X52165Y-53150
X52181Y-38339
X52181Y-41339
X52181Y-44244
X52181Y-47244
X52244Y-26528
X52244Y-29528
X52244Y-31449
X52244Y-34449
X53165Y-50150
X53165Y-53150
X53181Y-38339
X53181Y-41339
X53181Y-44244
X53181Y-47244
X53244Y-26528
X53244Y-29528
X53244Y-31449
X53244Y-34449
X54134Y-56055
X54134Y-59055
X54165Y-50150
X54165Y-53150
X54181Y-38339
X54181Y-41339
X54181Y-44244
X54181Y-47244
X54244Y-26528
X54244Y-29528
X54244Y-31449
X54244Y-34449
X55134Y-56055
X55134Y-59055
X55165Y-50150
X55165Y-53150
X55181Y-38339
X55181Y-41339
X55181Y-44244
X55181Y-47244
X56102Y-27559
X56102Y-32480
X56134Y-56055
X56134Y-59055
X56165Y-50150
X56165Y-53150
X56181Y-38339
X56181Y-41339
X56181Y-44244
X56181Y-47244
X57134Y-56055
X57134Y-59055
X57165Y-50150
X57165Y-53150
X57181Y-38339
X57181Y-41339
X57181Y-44244
X57181Y-47244
X58134Y-56055
X58134Y-59055
X58165Y-50150
X58165Y-53150
X58181Y-38339
X58181Y-41339
X58181Y-44244
X58181Y-47244
X59134Y-56055
X59134Y-59055
X59165Y-50150
X59165Y-53150
X59181Y-44244
X59181Y-47244
X60039Y-39370
X60134Y-56055
X60134Y-59055
X60165Y-50150
X60165Y-53150
X60181Y-44244
X60181Y-47244
X61024Y-26575
X61024Y-27575
X61024Y-28575
X61024Y-29575
X61024Y-30575
X61024Y-31575
X61024Y-32575
X61024Y-33575
X61024Y-34575
X61024Y-35575
X61134Y-56055
X61134Y-59055
X61165Y-50150
X61165Y-53150
X62008Y-46260
X62992Y-37402
X62992Y-51181
X62992Y-57087
X64024Y-26575
X64024Y-27575
X64024Y-28575
X64024Y-29575
X64024Y-30575
X64024Y-31575
X64024Y-32575
X64024Y-33575
X64024Y-34575
X64024Y-35575
X65945Y-39370
X65945Y-40370
X65945Y-41370
X65945Y-42370
X65945Y-43370
X65945Y-44370
X65945Y-45370
X65945Y-46370
X65945Y-56055
X65945Y-59055
X66929Y-27559
X66929Y-28559
X66929Y-29559
X66929Y-30559
X66929Y-31559
X66929Y-32559
X66929Y-33559
X66929Y-34559
X66945Y-56055
X66945Y-59055
X67913Y-36417
X67913Y-48228
X67945Y-56055
X67945Y-59055
X68945Y-39370
X68945Y-40370
X68945Y-41370
X68945Y-42370
X68945Y-43370
X68945Y-44370
X68945Y-45370
X68945Y-46370
X68945Y-56055
X68945Y-59055
X69929Y-27559
X69929Y-28559
X69929Y-29559
X69929Y-30559
X69929Y-31559
X69929Y-32559
X69929Y-33559
X69929Y-34559
X69945Y-56055
X69945Y-59055
X70945Y-56055
X70945Y-59055
X71945Y-56055
X71945Y-59055
X72945Y-56055
X72945Y-59055
X74803Y-57087
X76772Y-49213
X77756Y-52165
X78740Y-52165
T3
X26575Y-57087
X28543Y-43307
X31496Y-43307
X38386Y-51181
X42323Y-37402
X44291Y-47244
X49213Y-54134
X56102Y-28543
X56102Y-33465
X60039Y-40354
X62008Y-37402
X62008Y-45276
X62992Y-52165
X62992Y-58071
X66929Y-48228
X68898Y-36417
X74803Y-58071
X75787Y-49213
T4
X27512Y-35433
X27512Y-36433
X27512Y-37433
X27512Y-38433
X27512Y-39433
X27512Y-47244
X27512Y-48244
X27512Y-49244
X27512Y-50244
X27512Y-51244
X28512Y-34433
X28512Y-35433
X28512Y-36433
X28512Y-37433
X28512Y-38433
X28512Y-39433
X28512Y-40433
X28512Y-46244
X28512Y-47244
X28512Y-48244
X28512Y-49244
X28512Y-50244
X28512Y-51244
X28512Y-52244
X29512Y-34433
X29512Y-35433
X29512Y-39433
X29512Y-40433
X29512Y-46244
X29512Y-47244
X29512Y-51244
X29512Y-52244
X30512Y-34433
X30512Y-35433
X30512Y-39433
X30512Y-40433
X30512Y-46244
X30512Y-47244
X30512Y-51244
X30512Y-52244
X31512Y-34433
X31512Y-35433
X31512Y-36433
X31512Y-37433
X31512Y-38433
X31512Y-39433
X31512Y-40433
X31512Y-46244
X31512Y-47244
X31512Y-48244
X31512Y-49244
X31512Y-50244
X31512Y-51244
X31512Y-52244
X32512Y-35433
X32512Y-35433
X32512Y-36433
X32512Y-37433
X32512Y-38433
X32512Y-39433
X32512Y-47244
X32512Y-47244
X32512Y-48244
X32512Y-49244
X32512Y-50244
X32512Y-51244
X73772Y-30512
X73772Y-31512
X73772Y-32512
X73772Y-33512
X73772Y-34512
X73772Y-40354
X73772Y-41354
X73772Y-42354
X73772Y-43354
X73772Y-44354
X74772Y-29512
X74772Y-30512
X74772Y-31512
X74772Y-32512
X74772Y-33512
X74772Y-34512
X74772Y-35512
X74772Y-39354
X74772Y-40354
X74772Y-41354
X74772Y-42354
X74772Y-43354
X74772Y-44354
X74772Y-45354
X75772Y-29512
X75772Y-30512
X75772Y-34512
X75772Y-35512
X75772Y-39354
X75772Y-40354
X75772Y-44354
X75772Y-45354
X76772Y-29512
X76772Y-30512
X76772Y-34512
X76772Y-35512
X76772Y-39354
X76772Y-40354
X76772Y-44354
X76772Y-45354
X77772Y-29512
X77772Y-30512
X77772Y-31512
X77772Y-32512
X77772Y-33512
X77772Y-34512
X77772Y-35512
X77772Y-39354
X77772Y-40354
X77772Y-41354
X77772Y-42354
X77772Y-43354
X77772Y-44354
X77772Y-45354
X78772Y-30512
X78772Y-30512
X78772Y-31512
X78772Y-32512
X78772Y-33512
X78772Y-34512
X78772Y-40354
X78772Y-40354
X78772Y-41354
X78772Y-42354
X78772Y-43354
X78772Y-44354
T5
X77756Y-57087
X78756Y-57087
T6
X26575Y-26575
X26575Y-60039
X79724Y-26575
X79724Y-60039
T0
M30
