G04 #@! TF.FileFunction,Legend,Top*
%FSLAX46Y46*%
G04 Gerber Fmt 4.6, Leading zero omitted, Abs format (unit mm)*
G04 Created by KiCad (PCBNEW 4.0.4-snap1-stable) date Mon Oct  8 14:35:49 2018*
%MOMM*%
%LPD*%
G01*
G04 APERTURE LIST*
%ADD10C,0.100000*%
%ADD11C,0.200000*%
%ADD12C,0.700000*%
%ADD13C,0.150000*%
%ADD14C,0.120000*%
%ADD15C,0.010000*%
G04 APERTURE END LIST*
D10*
D11*
X62666667Y-119357144D02*
X62666667Y-118880953D01*
X62952381Y-119452382D02*
X61952381Y-119119049D01*
X62952381Y-118785715D01*
X62952381Y-118452382D02*
X61952381Y-118452382D01*
X62666667Y-118119048D01*
X61952381Y-117785715D01*
X62952381Y-117785715D01*
X62952381Y-117309525D02*
X61952381Y-117309525D01*
X62666667Y-116976191D01*
X61952381Y-116642858D01*
X62952381Y-116642858D01*
X62380952Y-116023811D02*
X62333333Y-116119049D01*
X62285714Y-116166668D01*
X62190476Y-116214287D01*
X62142857Y-116214287D01*
X62047619Y-116166668D01*
X62000000Y-116119049D01*
X61952381Y-116023811D01*
X61952381Y-115833334D01*
X62000000Y-115738096D01*
X62047619Y-115690477D01*
X62142857Y-115642858D01*
X62190476Y-115642858D01*
X62285714Y-115690477D01*
X62333333Y-115738096D01*
X62380952Y-115833334D01*
X62380952Y-116023811D01*
X62428571Y-116119049D01*
X62476190Y-116166668D01*
X62571429Y-116214287D01*
X62761905Y-116214287D01*
X62857143Y-116166668D01*
X62904762Y-116119049D01*
X62952381Y-116023811D01*
X62952381Y-115833334D01*
X62904762Y-115738096D01*
X62857143Y-115690477D01*
X62761905Y-115642858D01*
X62571429Y-115642858D01*
X62476190Y-115690477D01*
X62428571Y-115738096D01*
X62380952Y-115833334D01*
X62952381Y-114690477D02*
X62952381Y-115261906D01*
X62952381Y-114976192D02*
X61952381Y-114976192D01*
X62095238Y-115071430D01*
X62190476Y-115166668D01*
X62238095Y-115261906D01*
X62047619Y-114309525D02*
X62000000Y-114261906D01*
X61952381Y-114166668D01*
X61952381Y-113928572D01*
X62000000Y-113833334D01*
X62047619Y-113785715D01*
X62142857Y-113738096D01*
X62238095Y-113738096D01*
X62380952Y-113785715D01*
X62952381Y-114357144D01*
X62952381Y-113738096D01*
X62571429Y-112547620D02*
X62571429Y-111785715D01*
X61952381Y-110357144D02*
X61952381Y-110166667D01*
X62000000Y-110071429D01*
X62095238Y-109976191D01*
X62285714Y-109928572D01*
X62619048Y-109928572D01*
X62809524Y-109976191D01*
X62904762Y-110071429D01*
X62952381Y-110166667D01*
X62952381Y-110357144D01*
X62904762Y-110452382D01*
X62809524Y-110547620D01*
X62619048Y-110595239D01*
X62285714Y-110595239D01*
X62095238Y-110547620D01*
X62000000Y-110452382D01*
X61952381Y-110357144D01*
X62904762Y-109071429D02*
X62952381Y-109166667D01*
X62952381Y-109357144D01*
X62904762Y-109452382D01*
X62857143Y-109500001D01*
X62761905Y-109547620D01*
X62476190Y-109547620D01*
X62380952Y-109500001D01*
X62333333Y-109452382D01*
X62285714Y-109357144D01*
X62285714Y-109166667D01*
X62333333Y-109071429D01*
X62285714Y-108785715D02*
X62285714Y-108404763D01*
X61952381Y-108642858D02*
X62809524Y-108642858D01*
X62904762Y-108595239D01*
X62952381Y-108500001D01*
X62952381Y-108404763D01*
X62952381Y-107928572D02*
X62904762Y-108023810D01*
X62857143Y-108071429D01*
X62761905Y-108119048D01*
X62476190Y-108119048D01*
X62380952Y-108071429D01*
X62333333Y-108023810D01*
X62285714Y-107928572D01*
X62285714Y-107785714D01*
X62333333Y-107690476D01*
X62380952Y-107642857D01*
X62476190Y-107595238D01*
X62761905Y-107595238D01*
X62857143Y-107642857D01*
X62904762Y-107690476D01*
X62952381Y-107785714D01*
X62952381Y-107928572D01*
X62952381Y-107166667D02*
X61952381Y-107166667D01*
X62333333Y-107166667D02*
X62285714Y-107071429D01*
X62285714Y-106880952D01*
X62333333Y-106785714D01*
X62380952Y-106738095D01*
X62476190Y-106690476D01*
X62761905Y-106690476D01*
X62857143Y-106738095D01*
X62904762Y-106785714D01*
X62952381Y-106880952D01*
X62952381Y-107071429D01*
X62904762Y-107166667D01*
X62904762Y-105880952D02*
X62952381Y-105976190D01*
X62952381Y-106166667D01*
X62904762Y-106261905D01*
X62809524Y-106309524D01*
X62428571Y-106309524D01*
X62333333Y-106261905D01*
X62285714Y-106166667D01*
X62285714Y-105976190D01*
X62333333Y-105880952D01*
X62428571Y-105833333D01*
X62523810Y-105833333D01*
X62619048Y-106309524D01*
X62952381Y-105404762D02*
X62285714Y-105404762D01*
X62476190Y-105404762D02*
X62380952Y-105357143D01*
X62333333Y-105309524D01*
X62285714Y-105214286D01*
X62285714Y-105119047D01*
X62047619Y-104071428D02*
X62000000Y-104023809D01*
X61952381Y-103928571D01*
X61952381Y-103690475D01*
X62000000Y-103595237D01*
X62047619Y-103547618D01*
X62142857Y-103499999D01*
X62238095Y-103499999D01*
X62380952Y-103547618D01*
X62952381Y-104119047D01*
X62952381Y-103499999D01*
X61952381Y-102880952D02*
X61952381Y-102785713D01*
X62000000Y-102690475D01*
X62047619Y-102642856D01*
X62142857Y-102595237D01*
X62333333Y-102547618D01*
X62571429Y-102547618D01*
X62761905Y-102595237D01*
X62857143Y-102642856D01*
X62904762Y-102690475D01*
X62952381Y-102785713D01*
X62952381Y-102880952D01*
X62904762Y-102976190D01*
X62857143Y-103023809D01*
X62761905Y-103071428D01*
X62571429Y-103119047D01*
X62333333Y-103119047D01*
X62142857Y-103071428D01*
X62047619Y-103023809D01*
X62000000Y-102976190D01*
X61952381Y-102880952D01*
X62952381Y-101595237D02*
X62952381Y-102166666D01*
X62952381Y-101880952D02*
X61952381Y-101880952D01*
X62095238Y-101976190D01*
X62190476Y-102071428D01*
X62238095Y-102166666D01*
X62380952Y-101023809D02*
X62333333Y-101119047D01*
X62285714Y-101166666D01*
X62190476Y-101214285D01*
X62142857Y-101214285D01*
X62047619Y-101166666D01*
X62000000Y-101119047D01*
X61952381Y-101023809D01*
X61952381Y-100833332D01*
X62000000Y-100738094D01*
X62047619Y-100690475D01*
X62142857Y-100642856D01*
X62190476Y-100642856D01*
X62285714Y-100690475D01*
X62333333Y-100738094D01*
X62380952Y-100833332D01*
X62380952Y-101023809D01*
X62428571Y-101119047D01*
X62476190Y-101166666D01*
X62571429Y-101214285D01*
X62761905Y-101214285D01*
X62857143Y-101166666D01*
X62904762Y-101119047D01*
X62952381Y-101023809D01*
X62952381Y-100833332D01*
X62904762Y-100738094D01*
X62857143Y-100690475D01*
X62761905Y-100642856D01*
X62571429Y-100642856D01*
X62476190Y-100690475D01*
X62428571Y-100738094D01*
X62380952Y-100833332D01*
X163809522Y-137857143D02*
X163761903Y-137904762D01*
X163619046Y-137952381D01*
X163523808Y-137952381D01*
X163380950Y-137904762D01*
X163285712Y-137809524D01*
X163238093Y-137714286D01*
X163190474Y-137523810D01*
X163190474Y-137380952D01*
X163238093Y-137190476D01*
X163285712Y-137095238D01*
X163380950Y-137000000D01*
X163523808Y-136952381D01*
X163619046Y-136952381D01*
X163761903Y-137000000D01*
X163809522Y-137047619D01*
X164380950Y-137952381D02*
X164285712Y-137904762D01*
X164238093Y-137857143D01*
X164190474Y-137761905D01*
X164190474Y-137476190D01*
X164238093Y-137380952D01*
X164285712Y-137333333D01*
X164380950Y-137285714D01*
X164523808Y-137285714D01*
X164619046Y-137333333D01*
X164666665Y-137380952D01*
X164714284Y-137476190D01*
X164714284Y-137761905D01*
X164666665Y-137857143D01*
X164619046Y-137904762D01*
X164523808Y-137952381D01*
X164380950Y-137952381D01*
X165142855Y-137285714D02*
X165142855Y-138285714D01*
X165142855Y-137333333D02*
X165238093Y-137285714D01*
X165428570Y-137285714D01*
X165523808Y-137333333D01*
X165571427Y-137380952D01*
X165619046Y-137476190D01*
X165619046Y-137761905D01*
X165571427Y-137857143D01*
X165523808Y-137904762D01*
X165428570Y-137952381D01*
X165238093Y-137952381D01*
X165142855Y-137904762D01*
X165952379Y-137285714D02*
X166190474Y-137952381D01*
X166428570Y-137285714D02*
X166190474Y-137952381D01*
X166095236Y-138190476D01*
X166047617Y-138238095D01*
X165952379Y-138285714D01*
X166809522Y-137952381D02*
X166809522Y-137285714D01*
X166809522Y-137476190D02*
X166857141Y-137380952D01*
X166904760Y-137333333D01*
X166999998Y-137285714D01*
X167095237Y-137285714D01*
X167428570Y-137952381D02*
X167428570Y-137285714D01*
X167428570Y-136952381D02*
X167380951Y-137000000D01*
X167428570Y-137047619D01*
X167476189Y-137000000D01*
X167428570Y-136952381D01*
X167428570Y-137047619D01*
X168333332Y-137285714D02*
X168333332Y-138095238D01*
X168285713Y-138190476D01*
X168238094Y-138238095D01*
X168142855Y-138285714D01*
X167999998Y-138285714D01*
X167904760Y-138238095D01*
X168333332Y-137904762D02*
X168238094Y-137952381D01*
X168047617Y-137952381D01*
X167952379Y-137904762D01*
X167904760Y-137857143D01*
X167857141Y-137761905D01*
X167857141Y-137476190D01*
X167904760Y-137380952D01*
X167952379Y-137333333D01*
X168047617Y-137285714D01*
X168238094Y-137285714D01*
X168333332Y-137333333D01*
X168809522Y-137952381D02*
X168809522Y-136952381D01*
X169238094Y-137952381D02*
X169238094Y-137428571D01*
X169190475Y-137333333D01*
X169095237Y-137285714D01*
X168952379Y-137285714D01*
X168857141Y-137333333D01*
X168809522Y-137380952D01*
X169571427Y-137285714D02*
X169952379Y-137285714D01*
X169714284Y-136952381D02*
X169714284Y-137809524D01*
X169761903Y-137904762D01*
X169857141Y-137952381D01*
X169952379Y-137952381D01*
X171857142Y-137190476D02*
X171761904Y-137142857D01*
X171571428Y-137142857D01*
X171476190Y-137190476D01*
X171380952Y-137285714D01*
X171333333Y-137380952D01*
X171333333Y-137571429D01*
X171380952Y-137666667D01*
X171476190Y-137761905D01*
X171571428Y-137809524D01*
X171761904Y-137809524D01*
X171857142Y-137761905D01*
X171666666Y-136809524D02*
X171428571Y-136857143D01*
X171190475Y-137000000D01*
X171047618Y-137238095D01*
X170999999Y-137476190D01*
X171047618Y-137714286D01*
X171190475Y-137952381D01*
X171428571Y-138095238D01*
X171666666Y-138142857D01*
X171904761Y-138095238D01*
X172142856Y-137952381D01*
X172285713Y-137714286D01*
X172333333Y-137476190D01*
X172285713Y-137238095D01*
X172142856Y-137000000D01*
X171904761Y-136857143D01*
X171666666Y-136809524D01*
X173476190Y-137047619D02*
X173523809Y-137000000D01*
X173619047Y-136952381D01*
X173857143Y-136952381D01*
X173952381Y-137000000D01*
X174000000Y-137047619D01*
X174047619Y-137142857D01*
X174047619Y-137238095D01*
X174000000Y-137380952D01*
X173428571Y-137952381D01*
X174047619Y-137952381D01*
X174666666Y-136952381D02*
X174761905Y-136952381D01*
X174857143Y-137000000D01*
X174904762Y-137047619D01*
X174952381Y-137142857D01*
X175000000Y-137333333D01*
X175000000Y-137571429D01*
X174952381Y-137761905D01*
X174904762Y-137857143D01*
X174857143Y-137904762D01*
X174761905Y-137952381D01*
X174666666Y-137952381D01*
X174571428Y-137904762D01*
X174523809Y-137857143D01*
X174476190Y-137761905D01*
X174428571Y-137571429D01*
X174428571Y-137333333D01*
X174476190Y-137142857D01*
X174523809Y-137047619D01*
X174571428Y-137000000D01*
X174666666Y-136952381D01*
X175952381Y-137952381D02*
X175380952Y-137952381D01*
X175666666Y-137952381D02*
X175666666Y-136952381D01*
X175571428Y-137095238D01*
X175476190Y-137190476D01*
X175380952Y-137238095D01*
X176523809Y-137380952D02*
X176428571Y-137333333D01*
X176380952Y-137285714D01*
X176333333Y-137190476D01*
X176333333Y-137142857D01*
X176380952Y-137047619D01*
X176428571Y-137000000D01*
X176523809Y-136952381D01*
X176714286Y-136952381D01*
X176809524Y-137000000D01*
X176857143Y-137047619D01*
X176904762Y-137142857D01*
X176904762Y-137190476D01*
X176857143Y-137285714D01*
X176809524Y-137333333D01*
X176714286Y-137380952D01*
X176523809Y-137380952D01*
X176428571Y-137428571D01*
X176380952Y-137476190D01*
X176333333Y-137571429D01*
X176333333Y-137761905D01*
X176380952Y-137857143D01*
X176428571Y-137904762D01*
X176523809Y-137952381D01*
X176714286Y-137952381D01*
X176809524Y-137904762D01*
X176857143Y-137857143D01*
X176904762Y-137761905D01*
X176904762Y-137571429D01*
X176857143Y-137476190D01*
X176809524Y-137428571D01*
X176714286Y-137380952D01*
X178047619Y-137666667D02*
X178523810Y-137666667D01*
X177952381Y-137952381D02*
X178285714Y-136952381D01*
X178619048Y-137952381D01*
X178952381Y-137285714D02*
X178952381Y-137952381D01*
X178952381Y-137380952D02*
X179000000Y-137333333D01*
X179095238Y-137285714D01*
X179238096Y-137285714D01*
X179333334Y-137333333D01*
X179380953Y-137428571D01*
X179380953Y-137952381D01*
X180285715Y-137952381D02*
X180285715Y-136952381D01*
X180285715Y-137904762D02*
X180190477Y-137952381D01*
X180000000Y-137952381D01*
X179904762Y-137904762D01*
X179857143Y-137857143D01*
X179809524Y-137761905D01*
X179809524Y-137476190D01*
X179857143Y-137380952D01*
X179904762Y-137333333D01*
X180000000Y-137285714D01*
X180190477Y-137285714D01*
X180285715Y-137333333D01*
X180761905Y-137952381D02*
X180761905Y-137285714D01*
X180761905Y-137476190D02*
X180809524Y-137380952D01*
X180857143Y-137333333D01*
X180952381Y-137285714D01*
X181047620Y-137285714D01*
X181761906Y-137904762D02*
X181666668Y-137952381D01*
X181476191Y-137952381D01*
X181380953Y-137904762D01*
X181333334Y-137809524D01*
X181333334Y-137428571D01*
X181380953Y-137333333D01*
X181476191Y-137285714D01*
X181666668Y-137285714D01*
X181761906Y-137333333D01*
X181809525Y-137428571D01*
X181809525Y-137523810D01*
X181333334Y-137619048D01*
X182666668Y-137952381D02*
X182666668Y-137428571D01*
X182619049Y-137333333D01*
X182523811Y-137285714D01*
X182333334Y-137285714D01*
X182238096Y-137333333D01*
X182666668Y-137904762D02*
X182571430Y-137952381D01*
X182333334Y-137952381D01*
X182238096Y-137904762D01*
X182190477Y-137809524D01*
X182190477Y-137714286D01*
X182238096Y-137619048D01*
X182333334Y-137571429D01*
X182571430Y-137571429D01*
X182666668Y-137523810D01*
X183095239Y-137904762D02*
X183190477Y-137952381D01*
X183380953Y-137952381D01*
X183476192Y-137904762D01*
X183523811Y-137809524D01*
X183523811Y-137761905D01*
X183476192Y-137666667D01*
X183380953Y-137619048D01*
X183238096Y-137619048D01*
X183142858Y-137571429D01*
X183095239Y-137476190D01*
X183095239Y-137428571D01*
X183142858Y-137333333D01*
X183238096Y-137285714D01*
X183380953Y-137285714D01*
X183476192Y-137333333D01*
X184571430Y-136952381D02*
X185142859Y-136952381D01*
X184857144Y-137952381D02*
X184857144Y-136952381D01*
X186523812Y-136952381D02*
X186523812Y-137666667D01*
X186476192Y-137809524D01*
X186380954Y-137904762D01*
X186238097Y-137952381D01*
X186142859Y-137952381D01*
X187142859Y-137952381D02*
X187047621Y-137904762D01*
X187000002Y-137857143D01*
X186952383Y-137761905D01*
X186952383Y-137476190D01*
X187000002Y-137380952D01*
X187047621Y-137333333D01*
X187142859Y-137285714D01*
X187285717Y-137285714D01*
X187380955Y-137333333D01*
X187428574Y-137380952D01*
X187476193Y-137476190D01*
X187476193Y-137761905D01*
X187428574Y-137857143D01*
X187380955Y-137904762D01*
X187285717Y-137952381D01*
X187142859Y-137952381D01*
X187904764Y-137285714D02*
X187904764Y-137952381D01*
X187904764Y-137380952D02*
X187952383Y-137333333D01*
X188047621Y-137285714D01*
X188190479Y-137285714D01*
X188285717Y-137333333D01*
X188333336Y-137428571D01*
X188333336Y-137952381D01*
X188761907Y-137904762D02*
X188857145Y-137952381D01*
X189047621Y-137952381D01*
X189142860Y-137904762D01*
X189190479Y-137809524D01*
X189190479Y-137761905D01*
X189142860Y-137666667D01*
X189047621Y-137619048D01*
X188904764Y-137619048D01*
X188809526Y-137571429D01*
X188761907Y-137476190D01*
X188761907Y-137428571D01*
X188809526Y-137333333D01*
X188904764Y-137285714D01*
X189047621Y-137285714D01*
X189142860Y-137333333D01*
X189571431Y-137904762D02*
X189666669Y-137952381D01*
X189857145Y-137952381D01*
X189952384Y-137904762D01*
X190000003Y-137809524D01*
X190000003Y-137761905D01*
X189952384Y-137666667D01*
X189857145Y-137619048D01*
X189714288Y-137619048D01*
X189619050Y-137571429D01*
X189571431Y-137476190D01*
X189571431Y-137428571D01*
X189619050Y-137333333D01*
X189714288Y-137285714D01*
X189857145Y-137285714D01*
X189952384Y-137333333D01*
X190571431Y-137952381D02*
X190476193Y-137904762D01*
X190428574Y-137857143D01*
X190380955Y-137761905D01*
X190380955Y-137476190D01*
X190428574Y-137380952D01*
X190476193Y-137333333D01*
X190571431Y-137285714D01*
X190714289Y-137285714D01*
X190809527Y-137333333D01*
X190857146Y-137380952D01*
X190904765Y-137476190D01*
X190904765Y-137761905D01*
X190857146Y-137857143D01*
X190809527Y-137904762D01*
X190714289Y-137952381D01*
X190571431Y-137952381D01*
X191333336Y-137285714D02*
X191333336Y-137952381D01*
X191333336Y-137380952D02*
X191380955Y-137333333D01*
X191476193Y-137285714D01*
X191619051Y-137285714D01*
X191714289Y-137333333D01*
X191761908Y-137428571D01*
X191761908Y-137952381D01*
D12*
X103761905Y-128166667D02*
X105666667Y-128166667D01*
X103380952Y-129309524D02*
X104714286Y-125309524D01*
X106047619Y-129309524D01*
X107380952Y-129309524D02*
X107380952Y-125309524D01*
X108714285Y-128166667D01*
X110047619Y-125309524D01*
X110047619Y-129309524D01*
X111952381Y-129309524D02*
X111952381Y-125309524D01*
X113285714Y-128166667D01*
X114619048Y-125309524D01*
X114619048Y-129309524D01*
X117095239Y-127023810D02*
X116714286Y-126833333D01*
X116523810Y-126642857D01*
X116333334Y-126261905D01*
X116333334Y-126071429D01*
X116523810Y-125690476D01*
X116714286Y-125500000D01*
X117095239Y-125309524D01*
X117857143Y-125309524D01*
X118238096Y-125500000D01*
X118428572Y-125690476D01*
X118619048Y-126071429D01*
X118619048Y-126261905D01*
X118428572Y-126642857D01*
X118238096Y-126833333D01*
X117857143Y-127023810D01*
X117095239Y-127023810D01*
X116714286Y-127214286D01*
X116523810Y-127404762D01*
X116333334Y-127785714D01*
X116333334Y-128547619D01*
X116523810Y-128928571D01*
X116714286Y-129119048D01*
X117095239Y-129309524D01*
X117857143Y-129309524D01*
X118238096Y-129119048D01*
X118428572Y-128928571D01*
X118619048Y-128547619D01*
X118619048Y-127785714D01*
X118428572Y-127404762D01*
X118238096Y-127214286D01*
X117857143Y-127023810D01*
X122428572Y-129309524D02*
X120142858Y-129309524D01*
X121285715Y-129309524D02*
X121285715Y-125309524D01*
X120904763Y-125880952D01*
X120523810Y-126261905D01*
X120142858Y-126452381D01*
X123952382Y-125690476D02*
X124142858Y-125500000D01*
X124523810Y-125309524D01*
X125476191Y-125309524D01*
X125857144Y-125500000D01*
X126047620Y-125690476D01*
X126238096Y-126071429D01*
X126238096Y-126452381D01*
X126047620Y-127023810D01*
X123761906Y-129309524D01*
X126238096Y-129309524D01*
D13*
X102635000Y-65205000D02*
X102635000Y-66475000D01*
X109985000Y-65205000D02*
X109985000Y-66475000D01*
X109985000Y-92655000D02*
X109985000Y-91385000D01*
X102635000Y-92655000D02*
X102635000Y-91385000D01*
X102635000Y-65205000D02*
X109985000Y-65205000D01*
X102635000Y-92655000D02*
X109985000Y-92655000D01*
X102635000Y-66475000D02*
X101700000Y-66475000D01*
X92635000Y-100205000D02*
X92635000Y-101475000D01*
X99985000Y-100205000D02*
X99985000Y-101475000D01*
X99985000Y-127655000D02*
X99985000Y-126385000D01*
X92635000Y-127655000D02*
X92635000Y-126385000D01*
X92635000Y-100205000D02*
X99985000Y-100205000D01*
X92635000Y-127655000D02*
X99985000Y-127655000D01*
X92635000Y-101475000D02*
X91700000Y-101475000D01*
D14*
X75230000Y-84680000D02*
X68105000Y-84680000D01*
X68105000Y-84680000D02*
X67105000Y-85680000D01*
X67105000Y-85680000D02*
X67105000Y-105480000D01*
X67105000Y-105480000D02*
X85355000Y-105480000D01*
X85355000Y-105480000D02*
X85355000Y-84680000D01*
X85355000Y-84680000D02*
X77230000Y-84680000D01*
X75230000Y-114680000D02*
X68105000Y-114680000D01*
X68105000Y-114680000D02*
X67105000Y-115680000D01*
X67105000Y-115680000D02*
X67105000Y-135480000D01*
X67105000Y-135480000D02*
X85355000Y-135480000D01*
X85355000Y-135480000D02*
X85355000Y-114680000D01*
X85355000Y-114680000D02*
X77230000Y-114680000D01*
D13*
X65205000Y-79865000D02*
X66475000Y-79865000D01*
X65205000Y-72515000D02*
X66475000Y-72515000D01*
X87575000Y-72515000D02*
X86305000Y-72515000D01*
X87575000Y-79865000D02*
X86305000Y-79865000D01*
X65205000Y-79865000D02*
X65205000Y-72515000D01*
X87575000Y-79865000D02*
X87575000Y-72515000D01*
X66475000Y-79865000D02*
X66475000Y-80800000D01*
D14*
X192730000Y-72180000D02*
X185605000Y-72180000D01*
X185605000Y-72180000D02*
X184605000Y-73180000D01*
X184605000Y-73180000D02*
X184605000Y-92980000D01*
X184605000Y-92980000D02*
X202855000Y-92980000D01*
X202855000Y-92980000D02*
X202855000Y-72180000D01*
X202855000Y-72180000D02*
X194730000Y-72180000D01*
D13*
X100205000Y-142365000D02*
X101475000Y-142365000D01*
X100205000Y-135015000D02*
X101475000Y-135015000D01*
X122575000Y-135015000D02*
X121305000Y-135015000D01*
X122575000Y-142365000D02*
X121305000Y-142365000D01*
X100205000Y-142365000D02*
X100205000Y-135015000D01*
X122575000Y-142365000D02*
X122575000Y-135015000D01*
X101475000Y-142365000D02*
X101475000Y-143300000D01*
X135205000Y-149865000D02*
X136475000Y-149865000D01*
X135205000Y-142515000D02*
X136475000Y-142515000D01*
X157575000Y-142515000D02*
X156305000Y-142515000D01*
X157575000Y-149865000D02*
X156305000Y-149865000D01*
X135205000Y-149865000D02*
X135205000Y-142515000D01*
X157575000Y-149865000D02*
X157575000Y-142515000D01*
X136475000Y-149865000D02*
X136475000Y-150800000D01*
X165205000Y-149865000D02*
X166475000Y-149865000D01*
X165205000Y-142515000D02*
X166475000Y-142515000D01*
X187575000Y-142515000D02*
X186305000Y-142515000D01*
X187575000Y-149865000D02*
X186305000Y-149865000D01*
X165205000Y-149865000D02*
X165205000Y-142515000D01*
X187575000Y-149865000D02*
X187575000Y-142515000D01*
X166475000Y-149865000D02*
X166475000Y-150800000D01*
X117705000Y-74865000D02*
X118975000Y-74865000D01*
X117705000Y-67515000D02*
X118975000Y-67515000D01*
X140075000Y-67515000D02*
X138805000Y-67515000D01*
X140075000Y-74865000D02*
X138805000Y-74865000D01*
X117705000Y-74865000D02*
X117705000Y-67515000D01*
X140075000Y-74865000D02*
X140075000Y-67515000D01*
X118975000Y-74865000D02*
X118975000Y-75800000D01*
X117705000Y-87365000D02*
X118975000Y-87365000D01*
X117705000Y-80015000D02*
X118975000Y-80015000D01*
X140075000Y-80015000D02*
X138805000Y-80015000D01*
X140075000Y-87365000D02*
X138805000Y-87365000D01*
X117705000Y-87365000D02*
X117705000Y-80015000D01*
X140075000Y-87365000D02*
X140075000Y-80015000D01*
X118975000Y-87365000D02*
X118975000Y-88300000D01*
X127705000Y-104865000D02*
X128975000Y-104865000D01*
X127705000Y-97515000D02*
X128975000Y-97515000D01*
X150075000Y-97515000D02*
X148805000Y-97515000D01*
X150075000Y-104865000D02*
X148805000Y-104865000D01*
X127705000Y-104865000D02*
X127705000Y-97515000D01*
X150075000Y-104865000D02*
X150075000Y-97515000D01*
X128975000Y-104865000D02*
X128975000Y-105800000D01*
X196130000Y-141980000D02*
X196130000Y-147980000D01*
X196130000Y-147980000D02*
X201410000Y-147980000D01*
X201410000Y-147980000D02*
X201410000Y-141980000D01*
X201410000Y-141980000D02*
X196130000Y-141980000D01*
X197500000Y-147980000D02*
X197500000Y-146980000D01*
X197500000Y-146980000D02*
X200040000Y-146980000D01*
X200040000Y-146980000D02*
X200040000Y-147980000D01*
X197500000Y-146980000D02*
X197750000Y-146550000D01*
X197750000Y-146550000D02*
X199790000Y-146550000D01*
X199790000Y-146550000D02*
X200040000Y-146980000D01*
X197750000Y-147980000D02*
X197750000Y-146980000D01*
X199790000Y-147980000D02*
X199790000Y-146980000D01*
X196700000Y-141980000D02*
X196700000Y-142600000D01*
X196700000Y-142600000D02*
X198300000Y-142600000D01*
X198300000Y-142600000D02*
X198300000Y-141980000D01*
X199240000Y-141980000D02*
X199240000Y-142600000D01*
X199240000Y-142600000D02*
X200840000Y-142600000D01*
X200840000Y-142600000D02*
X200840000Y-141980000D01*
X170135000Y-67705000D02*
X170135000Y-68975000D01*
X177485000Y-67705000D02*
X177485000Y-68975000D01*
X177485000Y-90075000D02*
X177485000Y-88805000D01*
X170135000Y-90075000D02*
X170135000Y-88805000D01*
X170135000Y-67705000D02*
X177485000Y-67705000D01*
X170135000Y-90075000D02*
X177485000Y-90075000D01*
X170135000Y-68975000D02*
X169200000Y-68975000D01*
X127705000Y-119865000D02*
X128975000Y-119865000D01*
X127705000Y-112515000D02*
X128975000Y-112515000D01*
X155155000Y-112515000D02*
X153885000Y-112515000D01*
X155155000Y-119865000D02*
X153885000Y-119865000D01*
X127705000Y-119865000D02*
X127705000Y-112515000D01*
X155155000Y-119865000D02*
X155155000Y-112515000D01*
X128975000Y-119865000D02*
X128975000Y-120800000D01*
X130205000Y-134865000D02*
X131475000Y-134865000D01*
X130205000Y-127515000D02*
X131475000Y-127515000D01*
X157655000Y-127515000D02*
X156385000Y-127515000D01*
X157655000Y-134865000D02*
X156385000Y-134865000D01*
X130205000Y-134865000D02*
X130205000Y-127515000D01*
X157655000Y-134865000D02*
X157655000Y-127515000D01*
X131475000Y-134865000D02*
X131475000Y-135800000D01*
X115250000Y-121250000D02*
X112250000Y-121250000D01*
X112250000Y-118750000D02*
X115250000Y-118750000D01*
X123750000Y-140250000D02*
X123750000Y-137250000D01*
X126250000Y-137250000D02*
X126250000Y-140250000D01*
X161250000Y-144750000D02*
X161250000Y-147750000D01*
X158750000Y-147750000D02*
X158750000Y-144750000D01*
X161250000Y-129750000D02*
X161250000Y-132750000D01*
X158750000Y-132750000D02*
X158750000Y-129750000D01*
X94750000Y-128750000D02*
X97750000Y-128750000D01*
X97750000Y-131250000D02*
X94750000Y-131250000D01*
X160250000Y-96250000D02*
X157250000Y-96250000D01*
X157250000Y-93750000D02*
X160250000Y-93750000D01*
X156250000Y-117750000D02*
X156250000Y-114750000D01*
X158750000Y-114750000D02*
X158750000Y-117750000D01*
X153750000Y-99750000D02*
X153750000Y-102750000D01*
X151250000Y-102750000D02*
X151250000Y-99750000D01*
X143750000Y-82250000D02*
X143750000Y-85250000D01*
X141250000Y-85250000D02*
X141250000Y-82250000D01*
X143750000Y-69750000D02*
X143750000Y-72750000D01*
X141250000Y-72750000D02*
X141250000Y-69750000D01*
X104750000Y-93750000D02*
X107750000Y-93750000D01*
X107750000Y-96250000D02*
X104750000Y-96250000D01*
X68750000Y-142250000D02*
X68750000Y-145250000D01*
X66250000Y-145250000D02*
X66250000Y-142250000D01*
X69750000Y-108750000D02*
X72750000Y-108750000D01*
X72750000Y-111250000D02*
X69750000Y-111250000D01*
X82750000Y-111250000D02*
X79750000Y-111250000D01*
X79750000Y-108750000D02*
X82750000Y-108750000D01*
X172250000Y-91250000D02*
X175250000Y-91250000D01*
X175250000Y-93750000D02*
X172250000Y-93750000D01*
X191250000Y-144750000D02*
X191250000Y-147750000D01*
X188750000Y-147750000D02*
X188750000Y-144750000D01*
X172750000Y-123750000D02*
X169750000Y-123750000D01*
X169750000Y-121250000D02*
X172750000Y-121250000D01*
X195250000Y-126250000D02*
X192250000Y-126250000D01*
X192250000Y-123750000D02*
X195250000Y-123750000D01*
X110135000Y-95205000D02*
X110135000Y-96475000D01*
X117485000Y-95205000D02*
X117485000Y-96475000D01*
X117485000Y-117575000D02*
X117485000Y-116305000D01*
X110135000Y-117575000D02*
X110135000Y-116305000D01*
X110135000Y-95205000D02*
X117485000Y-95205000D01*
X110135000Y-117575000D02*
X117485000Y-117575000D01*
X110135000Y-96475000D02*
X109200000Y-96475000D01*
X167635000Y-97705000D02*
X167635000Y-98975000D01*
X174985000Y-97705000D02*
X174985000Y-98975000D01*
X174985000Y-120075000D02*
X174985000Y-118805000D01*
X167635000Y-120075000D02*
X167635000Y-118805000D01*
X167635000Y-97705000D02*
X174985000Y-97705000D01*
X167635000Y-120075000D02*
X174985000Y-120075000D01*
X167635000Y-98975000D02*
X166700000Y-98975000D01*
X94000000Y-68500000D02*
X96000000Y-68500000D01*
X96000000Y-68500000D02*
X96000000Y-66500000D01*
X96000000Y-66500000D02*
X98000000Y-66500000D01*
X98000000Y-66500000D02*
X98000000Y-68500000D01*
X98000000Y-68500000D02*
X98000000Y-92500000D01*
X98000000Y-92500000D02*
X94000000Y-92500000D01*
X94000000Y-92500000D02*
X94000000Y-68500000D01*
X93500000Y-67500000D02*
X93500000Y-66000000D01*
X93500000Y-66000000D02*
X95000000Y-66000000D01*
X89795000Y-140135000D02*
X88525000Y-140135000D01*
X89795000Y-147485000D02*
X88525000Y-147485000D01*
X69965000Y-147485000D02*
X71235000Y-147485000D01*
X69965000Y-140135000D02*
X71235000Y-140135000D01*
X89795000Y-140135000D02*
X89795000Y-147485000D01*
X69965000Y-140135000D02*
X69965000Y-147485000D01*
X88525000Y-140135000D02*
X88525000Y-139200000D01*
X93500000Y-153500000D02*
X93500000Y-151500000D01*
X93500000Y-151500000D02*
X91500000Y-151500000D01*
X91500000Y-151500000D02*
X91500000Y-149500000D01*
X91500000Y-149500000D02*
X93500000Y-149500000D01*
X93500000Y-149500000D02*
X131500000Y-149500000D01*
X131500000Y-149500000D02*
X131500000Y-153500000D01*
X131500000Y-153500000D02*
X93500000Y-153500000D01*
X92500000Y-154000000D02*
X91000000Y-154000000D01*
X91000000Y-154000000D02*
X91000000Y-152500000D01*
X198675000Y-134999000D02*
X198675000Y-130001000D01*
X198535000Y-134991000D02*
X198535000Y-130009000D01*
X198395000Y-134975000D02*
X198395000Y-132595000D01*
X198395000Y-132405000D02*
X198395000Y-130025000D01*
X198255000Y-134951000D02*
X198255000Y-132990000D01*
X198255000Y-132010000D02*
X198255000Y-130049000D01*
X198115000Y-134918000D02*
X198115000Y-133157000D01*
X198115000Y-131843000D02*
X198115000Y-130082000D01*
X197975000Y-134877000D02*
X197975000Y-133264000D01*
X197975000Y-131736000D02*
X197975000Y-130123000D01*
X197835000Y-134827000D02*
X197835000Y-133335000D01*
X197835000Y-131665000D02*
X197835000Y-130173000D01*
X197695000Y-134766000D02*
X197695000Y-133379000D01*
X197695000Y-131621000D02*
X197695000Y-130234000D01*
X197555000Y-134696000D02*
X197555000Y-133398000D01*
X197555000Y-131602000D02*
X197555000Y-130304000D01*
X197415000Y-134614000D02*
X197415000Y-133396000D01*
X197415000Y-131604000D02*
X197415000Y-130386000D01*
X197275000Y-134519000D02*
X197275000Y-133371000D01*
X197275000Y-131629000D02*
X197275000Y-130481000D01*
X197135000Y-134408000D02*
X197135000Y-133323000D01*
X197135000Y-131677000D02*
X197135000Y-130592000D01*
X196995000Y-134280000D02*
X196995000Y-133245000D01*
X196995000Y-131755000D02*
X196995000Y-130720000D01*
X196855000Y-134131000D02*
X196855000Y-133128000D01*
X196855000Y-131872000D02*
X196855000Y-130869000D01*
X196715000Y-133952000D02*
X196715000Y-132940000D01*
X196715000Y-132060000D02*
X196715000Y-131048000D01*
X196575000Y-133733000D02*
X196575000Y-131267000D01*
X196435000Y-133444000D02*
X196435000Y-131556000D01*
X196295000Y-132972000D02*
X196295000Y-132028000D01*
X198400000Y-132500000D02*
G75*
G03X198400000Y-132500000I-900000J0D01*
G01*
X201287500Y-132500000D02*
G75*
G03X201287500Y-132500000I-2537500J0D01*
G01*
D14*
X192730000Y-97180000D02*
X185605000Y-97180000D01*
X185605000Y-97180000D02*
X184605000Y-98180000D01*
X184605000Y-98180000D02*
X184605000Y-117980000D01*
X184605000Y-117980000D02*
X202855000Y-117980000D01*
X202855000Y-117980000D02*
X202855000Y-97180000D01*
X202855000Y-97180000D02*
X194730000Y-97180000D01*
D13*
X155135000Y-65205000D02*
X155135000Y-66475000D01*
X162485000Y-65205000D02*
X162485000Y-66475000D01*
X162485000Y-92655000D02*
X162485000Y-91385000D01*
X155135000Y-92655000D02*
X155135000Y-91385000D01*
X155135000Y-65205000D02*
X162485000Y-65205000D01*
X155135000Y-92655000D02*
X162485000Y-92655000D01*
X155135000Y-66475000D02*
X154200000Y-66475000D01*
D15*
G36*
X173972222Y-134409722D02*
X173795833Y-134586111D01*
X173619444Y-134409722D01*
X173795833Y-134233333D01*
X173972222Y-134409722D01*
X173972222Y-134409722D01*
G37*
X173972222Y-134409722D02*
X173795833Y-134586111D01*
X173619444Y-134409722D01*
X173795833Y-134233333D01*
X173972222Y-134409722D01*
G36*
X178496892Y-126919836D02*
X178339244Y-126994361D01*
X177940972Y-127073967D01*
X177320605Y-127392061D01*
X177147222Y-127752300D01*
X176988331Y-128111154D01*
X176834552Y-128084510D01*
X176512772Y-128209059D01*
X176338412Y-128592857D01*
X176326197Y-129087372D01*
X176755753Y-129294768D01*
X177268443Y-129335068D01*
X178298587Y-129340912D01*
X179070983Y-129300750D01*
X179536215Y-129328094D01*
X179395788Y-129663133D01*
X179338627Y-129733557D01*
X179091665Y-130260980D01*
X179149357Y-130473431D01*
X179163825Y-130697297D01*
X179096993Y-130705555D01*
X178672064Y-130462334D01*
X178307329Y-130088194D01*
X177979815Y-129744732D01*
X177898115Y-129918668D01*
X177995035Y-130617361D01*
X178027486Y-131507714D01*
X177755764Y-131788684D01*
X177674741Y-131923941D01*
X178029167Y-132146883D01*
X178384900Y-132349185D01*
X178127633Y-132355517D01*
X177676389Y-132275262D01*
X176972275Y-132163681D01*
X176868468Y-132288652D01*
X177242036Y-132704833D01*
X177844650Y-133124431D01*
X178429582Y-132973624D01*
X178476758Y-132943810D01*
X178959340Y-132368950D01*
X179038503Y-131979651D01*
X179153411Y-131487205D01*
X179303086Y-131411111D01*
X179623110Y-131629103D01*
X179500377Y-132173131D01*
X178998855Y-132878275D01*
X178577894Y-133280794D01*
X177949555Y-133868547D01*
X177671802Y-134249128D01*
X177678770Y-134294511D01*
X177449002Y-134388007D01*
X176707780Y-134469785D01*
X176159904Y-134499966D01*
X174501389Y-134565773D01*
X175345563Y-133919028D01*
X175933150Y-133305562D01*
X175971350Y-132857991D01*
X176541604Y-132857991D01*
X176615623Y-133211480D01*
X176640737Y-133278409D01*
X176920205Y-133710400D01*
X177079091Y-133713501D01*
X177039520Y-133340313D01*
X176838220Y-133080926D01*
X176541604Y-132857991D01*
X175971350Y-132857991D01*
X175994514Y-132586604D01*
X175918503Y-132253503D01*
X175753492Y-131242297D01*
X175712052Y-130549986D01*
X175736111Y-130549986D01*
X175890605Y-130926806D01*
X176051923Y-130904790D01*
X176425541Y-130998710D01*
X176570018Y-131236748D01*
X176944879Y-131728987D01*
X177316017Y-131609566D01*
X177499002Y-130948846D01*
X177500000Y-130881944D01*
X177372169Y-130219081D01*
X177126402Y-130000000D01*
X176928647Y-130231561D01*
X177001767Y-130440972D01*
X177107550Y-130705482D01*
X176794298Y-130458253D01*
X176775643Y-130440972D01*
X176133175Y-130030686D01*
X175783305Y-130224362D01*
X175736111Y-130549986D01*
X175712052Y-130549986D01*
X175678291Y-129985990D01*
X175679178Y-129647222D01*
X175943807Y-128237410D01*
X176623193Y-127283858D01*
X177642542Y-126876744D01*
X177980054Y-126873042D01*
X178496892Y-126919836D01*
X178496892Y-126919836D01*
G37*
X178496892Y-126919836D02*
X178339244Y-126994361D01*
X177940972Y-127073967D01*
X177320605Y-127392061D01*
X177147222Y-127752300D01*
X176988331Y-128111154D01*
X176834552Y-128084510D01*
X176512772Y-128209059D01*
X176338412Y-128592857D01*
X176326197Y-129087372D01*
X176755753Y-129294768D01*
X177268443Y-129335068D01*
X178298587Y-129340912D01*
X179070983Y-129300750D01*
X179536215Y-129328094D01*
X179395788Y-129663133D01*
X179338627Y-129733557D01*
X179091665Y-130260980D01*
X179149357Y-130473431D01*
X179163825Y-130697297D01*
X179096993Y-130705555D01*
X178672064Y-130462334D01*
X178307329Y-130088194D01*
X177979815Y-129744732D01*
X177898115Y-129918668D01*
X177995035Y-130617361D01*
X178027486Y-131507714D01*
X177755764Y-131788684D01*
X177674741Y-131923941D01*
X178029167Y-132146883D01*
X178384900Y-132349185D01*
X178127633Y-132355517D01*
X177676389Y-132275262D01*
X176972275Y-132163681D01*
X176868468Y-132288652D01*
X177242036Y-132704833D01*
X177844650Y-133124431D01*
X178429582Y-132973624D01*
X178476758Y-132943810D01*
X178959340Y-132368950D01*
X179038503Y-131979651D01*
X179153411Y-131487205D01*
X179303086Y-131411111D01*
X179623110Y-131629103D01*
X179500377Y-132173131D01*
X178998855Y-132878275D01*
X178577894Y-133280794D01*
X177949555Y-133868547D01*
X177671802Y-134249128D01*
X177678770Y-134294511D01*
X177449002Y-134388007D01*
X176707780Y-134469785D01*
X176159904Y-134499966D01*
X174501389Y-134565773D01*
X175345563Y-133919028D01*
X175933150Y-133305562D01*
X175971350Y-132857991D01*
X176541604Y-132857991D01*
X176615623Y-133211480D01*
X176640737Y-133278409D01*
X176920205Y-133710400D01*
X177079091Y-133713501D01*
X177039520Y-133340313D01*
X176838220Y-133080926D01*
X176541604Y-132857991D01*
X175971350Y-132857991D01*
X175994514Y-132586604D01*
X175918503Y-132253503D01*
X175753492Y-131242297D01*
X175712052Y-130549986D01*
X175736111Y-130549986D01*
X175890605Y-130926806D01*
X176051923Y-130904790D01*
X176425541Y-130998710D01*
X176570018Y-131236748D01*
X176944879Y-131728987D01*
X177316017Y-131609566D01*
X177499002Y-130948846D01*
X177500000Y-130881944D01*
X177372169Y-130219081D01*
X177126402Y-130000000D01*
X176928647Y-130231561D01*
X177001767Y-130440972D01*
X177107550Y-130705482D01*
X176794298Y-130458253D01*
X176775643Y-130440972D01*
X176133175Y-130030686D01*
X175783305Y-130224362D01*
X175736111Y-130549986D01*
X175712052Y-130549986D01*
X175678291Y-129985990D01*
X175679178Y-129647222D01*
X175943807Y-128237410D01*
X176623193Y-127283858D01*
X177642542Y-126876744D01*
X177980054Y-126873042D01*
X178496892Y-126919836D01*
G36*
X179851852Y-128353704D02*
X179894072Y-128772368D01*
X179851852Y-128824074D01*
X179642126Y-128775648D01*
X179616667Y-128588889D01*
X179745742Y-128298513D01*
X179851852Y-128353704D01*
X179851852Y-128353704D01*
G37*
X179851852Y-128353704D02*
X179894072Y-128772368D01*
X179851852Y-128824074D01*
X179642126Y-128775648D01*
X179616667Y-128588889D01*
X179745742Y-128298513D01*
X179851852Y-128353704D01*
D13*
X69786000Y-67500000D02*
G75*
G03X69786000Y-67500000I-2286000J0D01*
G01*
X204786000Y-67500000D02*
G75*
G03X204786000Y-67500000I-2286000J0D01*
G01*
X204786000Y-152500000D02*
G75*
G03X204786000Y-152500000I-2286000J0D01*
G01*
X69786000Y-152500000D02*
G75*
G03X69786000Y-152500000I-2286000J0D01*
G01*
X99999999Y-62666667D02*
X100476190Y-62666667D01*
X99904761Y-62952381D02*
X100238094Y-61952381D01*
X100571428Y-62952381D01*
X101476190Y-62857143D02*
X101428571Y-62904762D01*
X101285714Y-62952381D01*
X101190476Y-62952381D01*
X101047618Y-62904762D01*
X100952380Y-62809524D01*
X100904761Y-62714286D01*
X100857142Y-62523810D01*
X100857142Y-62380952D01*
X100904761Y-62190476D01*
X100952380Y-62095238D01*
X101047618Y-62000000D01*
X101190476Y-61952381D01*
X101285714Y-61952381D01*
X101428571Y-62000000D01*
X101476190Y-62047619D01*
X102476190Y-62857143D02*
X102428571Y-62904762D01*
X102285714Y-62952381D01*
X102190476Y-62952381D01*
X102047618Y-62904762D01*
X101952380Y-62809524D01*
X101904761Y-62714286D01*
X101857142Y-62523810D01*
X101857142Y-62380952D01*
X101904761Y-62190476D01*
X101952380Y-62095238D01*
X102047618Y-62000000D01*
X102190476Y-61952381D01*
X102285714Y-61952381D01*
X102428571Y-62000000D01*
X102476190Y-62047619D01*
X102666666Y-63047619D02*
X103428571Y-63047619D01*
X103666666Y-62952381D02*
X103666666Y-61952381D01*
X103904761Y-61952381D01*
X104047619Y-62000000D01*
X104142857Y-62095238D01*
X104190476Y-62190476D01*
X104238095Y-62380952D01*
X104238095Y-62523810D01*
X104190476Y-62714286D01*
X104142857Y-62809524D01*
X104047619Y-62904762D01*
X103904761Y-62952381D01*
X103666666Y-62952381D01*
X105095238Y-62952381D02*
X105095238Y-62428571D01*
X105047619Y-62333333D01*
X104952381Y-62285714D01*
X104761904Y-62285714D01*
X104666666Y-62333333D01*
X105095238Y-62904762D02*
X105000000Y-62952381D01*
X104761904Y-62952381D01*
X104666666Y-62904762D01*
X104619047Y-62809524D01*
X104619047Y-62714286D01*
X104666666Y-62619048D01*
X104761904Y-62571429D01*
X105000000Y-62571429D01*
X105095238Y-62523810D01*
X105428571Y-62285714D02*
X105809523Y-62285714D01*
X105571428Y-61952381D02*
X105571428Y-62809524D01*
X105619047Y-62904762D01*
X105714285Y-62952381D01*
X105809523Y-62952381D01*
X106571429Y-62952381D02*
X106571429Y-62428571D01*
X106523810Y-62333333D01*
X106428572Y-62285714D01*
X106238095Y-62285714D01*
X106142857Y-62333333D01*
X106571429Y-62904762D02*
X106476191Y-62952381D01*
X106238095Y-62952381D01*
X106142857Y-62904762D01*
X106095238Y-62809524D01*
X106095238Y-62714286D01*
X106142857Y-62619048D01*
X106238095Y-62571429D01*
X106476191Y-62571429D01*
X106571429Y-62523810D01*
X106809524Y-63047619D02*
X107571429Y-63047619D01*
X107809524Y-62952381D02*
X107809524Y-61952381D01*
X108285714Y-62285714D02*
X108285714Y-62952381D01*
X108285714Y-62380952D02*
X108333333Y-62333333D01*
X108428571Y-62285714D01*
X108571429Y-62285714D01*
X108666667Y-62333333D01*
X108714286Y-62428571D01*
X108714286Y-62952381D01*
X108952381Y-63047619D02*
X109714286Y-63047619D01*
X110285715Y-62428571D02*
X110428572Y-62476190D01*
X110476191Y-62523810D01*
X110523810Y-62619048D01*
X110523810Y-62761905D01*
X110476191Y-62857143D01*
X110428572Y-62904762D01*
X110333334Y-62952381D01*
X109952381Y-62952381D01*
X109952381Y-61952381D01*
X110285715Y-61952381D01*
X110380953Y-62000000D01*
X110428572Y-62047619D01*
X110476191Y-62142857D01*
X110476191Y-62238095D01*
X110428572Y-62333333D01*
X110380953Y-62380952D01*
X110285715Y-62428571D01*
X109952381Y-62428571D01*
X111380953Y-62285714D02*
X111380953Y-62952381D01*
X110952381Y-62285714D02*
X110952381Y-62809524D01*
X111000000Y-62904762D01*
X111095238Y-62952381D01*
X111238096Y-62952381D01*
X111333334Y-62904762D01*
X111380953Y-62857143D01*
X111714286Y-62285714D02*
X112095238Y-62285714D01*
X111857143Y-62952381D02*
X111857143Y-62095238D01*
X111904762Y-62000000D01*
X112000000Y-61952381D01*
X112095238Y-61952381D01*
X112285715Y-62285714D02*
X112666667Y-62285714D01*
X112428572Y-62952381D02*
X112428572Y-62095238D01*
X112476191Y-62000000D01*
X112571429Y-61952381D01*
X112666667Y-61952381D01*
X113380954Y-62904762D02*
X113285716Y-62952381D01*
X113095239Y-62952381D01*
X113000001Y-62904762D01*
X112952382Y-62809524D01*
X112952382Y-62428571D01*
X113000001Y-62333333D01*
X113095239Y-62285714D01*
X113285716Y-62285714D01*
X113380954Y-62333333D01*
X113428573Y-62428571D01*
X113428573Y-62523810D01*
X112952382Y-62619048D01*
X113857144Y-62952381D02*
X113857144Y-62285714D01*
X113857144Y-62476190D02*
X113904763Y-62380952D01*
X113952382Y-62333333D01*
X114047620Y-62285714D01*
X114142859Y-62285714D01*
X115000002Y-62952381D02*
X114428573Y-62952381D01*
X114714287Y-62952381D02*
X114714287Y-61952381D01*
X114619049Y-62095238D01*
X114523811Y-62190476D01*
X114428573Y-62238095D01*
X87809522Y-97666667D02*
X88285713Y-97666667D01*
X87714284Y-97952381D02*
X88047617Y-96952381D01*
X88380951Y-97952381D01*
X89285713Y-97857143D02*
X89238094Y-97904762D01*
X89095237Y-97952381D01*
X88999999Y-97952381D01*
X88857141Y-97904762D01*
X88761903Y-97809524D01*
X88714284Y-97714286D01*
X88666665Y-97523810D01*
X88666665Y-97380952D01*
X88714284Y-97190476D01*
X88761903Y-97095238D01*
X88857141Y-97000000D01*
X88999999Y-96952381D01*
X89095237Y-96952381D01*
X89238094Y-97000000D01*
X89285713Y-97047619D01*
X90285713Y-97857143D02*
X90238094Y-97904762D01*
X90095237Y-97952381D01*
X89999999Y-97952381D01*
X89857141Y-97904762D01*
X89761903Y-97809524D01*
X89714284Y-97714286D01*
X89666665Y-97523810D01*
X89666665Y-97380952D01*
X89714284Y-97190476D01*
X89761903Y-97095238D01*
X89857141Y-97000000D01*
X89999999Y-96952381D01*
X90095237Y-96952381D01*
X90238094Y-97000000D01*
X90285713Y-97047619D01*
X90476189Y-98047619D02*
X91238094Y-98047619D01*
X91666665Y-96952381D02*
X91857142Y-96952381D01*
X91952380Y-97000000D01*
X92047618Y-97095238D01*
X92095237Y-97285714D01*
X92095237Y-97619048D01*
X92047618Y-97809524D01*
X91952380Y-97904762D01*
X91857142Y-97952381D01*
X91666665Y-97952381D01*
X91571427Y-97904762D01*
X91476189Y-97809524D01*
X91428570Y-97619048D01*
X91428570Y-97285714D01*
X91476189Y-97095238D01*
X91571427Y-97000000D01*
X91666665Y-96952381D01*
X92952380Y-97285714D02*
X92952380Y-97952381D01*
X92523808Y-97285714D02*
X92523808Y-97809524D01*
X92571427Y-97904762D01*
X92666665Y-97952381D01*
X92809523Y-97952381D01*
X92904761Y-97904762D01*
X92952380Y-97857143D01*
X93285713Y-97285714D02*
X93666665Y-97285714D01*
X93428570Y-96952381D02*
X93428570Y-97809524D01*
X93476189Y-97904762D01*
X93571427Y-97952381D01*
X93666665Y-97952381D01*
X93999999Y-97285714D02*
X93999999Y-98285714D01*
X93999999Y-97333333D02*
X94095237Y-97285714D01*
X94285714Y-97285714D01*
X94380952Y-97333333D01*
X94428571Y-97380952D01*
X94476190Y-97476190D01*
X94476190Y-97761905D01*
X94428571Y-97857143D01*
X94380952Y-97904762D01*
X94285714Y-97952381D01*
X94095237Y-97952381D01*
X93999999Y-97904762D01*
X95333333Y-97285714D02*
X95333333Y-97952381D01*
X94904761Y-97285714D02*
X94904761Y-97809524D01*
X94952380Y-97904762D01*
X95047618Y-97952381D01*
X95190476Y-97952381D01*
X95285714Y-97904762D01*
X95333333Y-97857143D01*
X95666666Y-97285714D02*
X96047618Y-97285714D01*
X95809523Y-96952381D02*
X95809523Y-97809524D01*
X95857142Y-97904762D01*
X95952380Y-97952381D01*
X96047618Y-97952381D01*
X96142857Y-98047619D02*
X96904762Y-98047619D01*
X97476191Y-97428571D02*
X97619048Y-97476190D01*
X97666667Y-97523810D01*
X97714286Y-97619048D01*
X97714286Y-97761905D01*
X97666667Y-97857143D01*
X97619048Y-97904762D01*
X97523810Y-97952381D01*
X97142857Y-97952381D01*
X97142857Y-96952381D01*
X97476191Y-96952381D01*
X97571429Y-97000000D01*
X97619048Y-97047619D01*
X97666667Y-97142857D01*
X97666667Y-97238095D01*
X97619048Y-97333333D01*
X97571429Y-97380952D01*
X97476191Y-97428571D01*
X97142857Y-97428571D01*
X98571429Y-97285714D02*
X98571429Y-97952381D01*
X98142857Y-97285714D02*
X98142857Y-97809524D01*
X98190476Y-97904762D01*
X98285714Y-97952381D01*
X98428572Y-97952381D01*
X98523810Y-97904762D01*
X98571429Y-97857143D01*
X98904762Y-97285714D02*
X99285714Y-97285714D01*
X99047619Y-97952381D02*
X99047619Y-97095238D01*
X99095238Y-97000000D01*
X99190476Y-96952381D01*
X99285714Y-96952381D01*
X99476191Y-97285714D02*
X99857143Y-97285714D01*
X99619048Y-97952381D02*
X99619048Y-97095238D01*
X99666667Y-97000000D01*
X99761905Y-96952381D01*
X99857143Y-96952381D01*
X100571430Y-97904762D02*
X100476192Y-97952381D01*
X100285715Y-97952381D01*
X100190477Y-97904762D01*
X100142858Y-97809524D01*
X100142858Y-97428571D01*
X100190477Y-97333333D01*
X100285715Y-97285714D01*
X100476192Y-97285714D01*
X100571430Y-97333333D01*
X100619049Y-97428571D01*
X100619049Y-97523810D01*
X100142858Y-97619048D01*
X101047620Y-97952381D02*
X101047620Y-97285714D01*
X101047620Y-97476190D02*
X101095239Y-97380952D01*
X101142858Y-97333333D01*
X101238096Y-97285714D01*
X101333335Y-97285714D01*
X102190478Y-97952381D02*
X101619049Y-97952381D01*
X101904763Y-97952381D02*
X101904763Y-96952381D01*
X101809525Y-97095238D01*
X101714287Y-97190476D01*
X101619049Y-97238095D01*
X72539524Y-83946667D02*
X73015715Y-83946667D01*
X72444286Y-84232381D02*
X72777619Y-83232381D01*
X73110953Y-84232381D01*
X73920477Y-84232381D02*
X73444286Y-84232381D01*
X73444286Y-83232381D01*
X74253810Y-83232381D02*
X74253810Y-84041905D01*
X74301429Y-84137143D01*
X74349048Y-84184762D01*
X74444286Y-84232381D01*
X74634763Y-84232381D01*
X74730001Y-84184762D01*
X74777620Y-84137143D01*
X74825239Y-84041905D01*
X74825239Y-83232381D01*
X75063334Y-84327619D02*
X75825239Y-84327619D01*
X76063334Y-84232381D02*
X76063334Y-83232381D01*
X76063334Y-83708571D02*
X76634763Y-83708571D01*
X76634763Y-84232381D02*
X76634763Y-83232381D01*
X77110953Y-84232381D02*
X77110953Y-83565714D01*
X77110953Y-83232381D02*
X77063334Y-83280000D01*
X77110953Y-83327619D01*
X77158572Y-83280000D01*
X77110953Y-83232381D01*
X77110953Y-83327619D01*
X78015715Y-83565714D02*
X78015715Y-84375238D01*
X77968096Y-84470476D01*
X77920477Y-84518095D01*
X77825238Y-84565714D01*
X77682381Y-84565714D01*
X77587143Y-84518095D01*
X78015715Y-84184762D02*
X77920477Y-84232381D01*
X77730000Y-84232381D01*
X77634762Y-84184762D01*
X77587143Y-84137143D01*
X77539524Y-84041905D01*
X77539524Y-83756190D01*
X77587143Y-83660952D01*
X77634762Y-83613333D01*
X77730000Y-83565714D01*
X77920477Y-83565714D01*
X78015715Y-83613333D01*
X78491905Y-84232381D02*
X78491905Y-83232381D01*
X78920477Y-84232381D02*
X78920477Y-83708571D01*
X78872858Y-83613333D01*
X78777620Y-83565714D01*
X78634762Y-83565714D01*
X78539524Y-83613333D01*
X78491905Y-83660952D01*
X79920477Y-84232381D02*
X79349048Y-84232381D01*
X79634762Y-84232381D02*
X79634762Y-83232381D01*
X79539524Y-83375238D01*
X79444286Y-83470476D01*
X79349048Y-83518095D01*
X72825238Y-113946667D02*
X73301429Y-113946667D01*
X72730000Y-114232381D02*
X73063333Y-113232381D01*
X73396667Y-114232381D01*
X74206191Y-114232381D02*
X73730000Y-114232381D01*
X73730000Y-113232381D01*
X74539524Y-113232381D02*
X74539524Y-114041905D01*
X74587143Y-114137143D01*
X74634762Y-114184762D01*
X74730000Y-114232381D01*
X74920477Y-114232381D01*
X75015715Y-114184762D01*
X75063334Y-114137143D01*
X75110953Y-114041905D01*
X75110953Y-113232381D01*
X75349048Y-114327619D02*
X76110953Y-114327619D01*
X76825239Y-114232381D02*
X76349048Y-114232381D01*
X76349048Y-113232381D01*
X77301429Y-114232381D02*
X77206191Y-114184762D01*
X77158572Y-114137143D01*
X77110953Y-114041905D01*
X77110953Y-113756190D01*
X77158572Y-113660952D01*
X77206191Y-113613333D01*
X77301429Y-113565714D01*
X77444287Y-113565714D01*
X77539525Y-113613333D01*
X77587144Y-113660952D01*
X77634763Y-113756190D01*
X77634763Y-114041905D01*
X77587144Y-114137143D01*
X77539525Y-114184762D01*
X77444287Y-114232381D01*
X77301429Y-114232381D01*
X77968096Y-113565714D02*
X78158572Y-114232381D01*
X78349049Y-113756190D01*
X78539525Y-114232381D01*
X78730001Y-113565714D01*
X79634763Y-114232381D02*
X79063334Y-114232381D01*
X79349048Y-114232381D02*
X79349048Y-113232381D01*
X79253810Y-113375238D01*
X79158572Y-113470476D01*
X79063334Y-113518095D01*
X62428571Y-76904762D02*
X62428571Y-77238096D01*
X62952381Y-77238096D02*
X61952381Y-77238096D01*
X61952381Y-76761905D01*
X62952381Y-76238096D02*
X62904762Y-76333334D01*
X62809524Y-76380953D01*
X61952381Y-76380953D01*
X62952381Y-75428571D02*
X62428571Y-75428571D01*
X62333333Y-75476190D01*
X62285714Y-75571428D01*
X62285714Y-75761905D01*
X62333333Y-75857143D01*
X62904762Y-75428571D02*
X62952381Y-75523809D01*
X62952381Y-75761905D01*
X62904762Y-75857143D01*
X62809524Y-75904762D01*
X62714286Y-75904762D01*
X62619048Y-75857143D01*
X62571429Y-75761905D01*
X62571429Y-75523809D01*
X62523810Y-75428571D01*
X62285714Y-74523809D02*
X63095238Y-74523809D01*
X63190476Y-74571428D01*
X63238095Y-74619047D01*
X63285714Y-74714286D01*
X63285714Y-74857143D01*
X63238095Y-74952381D01*
X62904762Y-74523809D02*
X62952381Y-74619047D01*
X62952381Y-74809524D01*
X62904762Y-74904762D01*
X62857143Y-74952381D01*
X62761905Y-75000000D01*
X62476190Y-75000000D01*
X62380952Y-74952381D01*
X62333333Y-74904762D01*
X62285714Y-74809524D01*
X62285714Y-74619047D01*
X62333333Y-74523809D01*
X62904762Y-74095238D02*
X62952381Y-74000000D01*
X62952381Y-73809524D01*
X62904762Y-73714285D01*
X62809524Y-73666666D01*
X62761905Y-73666666D01*
X62666667Y-73714285D01*
X62619048Y-73809524D01*
X62619048Y-73952381D01*
X62571429Y-74047619D01*
X62476190Y-74095238D01*
X62428571Y-74095238D01*
X62333333Y-74047619D01*
X62285714Y-73952381D01*
X62285714Y-73809524D01*
X62333333Y-73714285D01*
X62952381Y-72714285D02*
X62952381Y-73285714D01*
X62952381Y-73000000D02*
X61952381Y-73000000D01*
X62095238Y-73095238D01*
X62190476Y-73190476D01*
X62238095Y-73285714D01*
X191349048Y-71732381D02*
X190872857Y-71732381D01*
X190872857Y-70732381D01*
X191825238Y-71732381D02*
X191730000Y-71684762D01*
X191682381Y-71637143D01*
X191634762Y-71541905D01*
X191634762Y-71256190D01*
X191682381Y-71160952D01*
X191730000Y-71113333D01*
X191825238Y-71065714D01*
X191968096Y-71065714D01*
X192063334Y-71113333D01*
X192110953Y-71160952D01*
X192158572Y-71256190D01*
X192158572Y-71541905D01*
X192110953Y-71637143D01*
X192063334Y-71684762D01*
X191968096Y-71732381D01*
X191825238Y-71732381D01*
X192730000Y-71732381D02*
X192634762Y-71684762D01*
X192587143Y-71637143D01*
X192539524Y-71541905D01*
X192539524Y-71256190D01*
X192587143Y-71160952D01*
X192634762Y-71113333D01*
X192730000Y-71065714D01*
X192872858Y-71065714D01*
X192968096Y-71113333D01*
X193015715Y-71160952D01*
X193063334Y-71256190D01*
X193063334Y-71541905D01*
X193015715Y-71637143D01*
X192968096Y-71684762D01*
X192872858Y-71732381D01*
X192730000Y-71732381D01*
X193491905Y-71732381D02*
X193491905Y-70732381D01*
X193587143Y-71351429D02*
X193872858Y-71732381D01*
X193872858Y-71065714D02*
X193491905Y-71446667D01*
X194730001Y-71065714D02*
X194730001Y-71732381D01*
X194301429Y-71065714D02*
X194301429Y-71589524D01*
X194349048Y-71684762D01*
X194444286Y-71732381D01*
X194587144Y-71732381D01*
X194682382Y-71684762D01*
X194730001Y-71637143D01*
X195206191Y-71065714D02*
X195206191Y-72065714D01*
X195206191Y-71113333D02*
X195301429Y-71065714D01*
X195491906Y-71065714D01*
X195587144Y-71113333D01*
X195634763Y-71160952D01*
X195682382Y-71256190D01*
X195682382Y-71541905D01*
X195634763Y-71637143D01*
X195587144Y-71684762D01*
X195491906Y-71732381D01*
X195301429Y-71732381D01*
X195206191Y-71684762D01*
X196634763Y-71732381D02*
X196063334Y-71732381D01*
X196349048Y-71732381D02*
X196349048Y-70732381D01*
X196253810Y-70875238D01*
X196158572Y-70970476D01*
X196063334Y-71018095D01*
X97952381Y-142547619D02*
X96952381Y-142547619D01*
X97666667Y-142214285D01*
X96952381Y-141880952D01*
X97952381Y-141880952D01*
X97666667Y-141452381D02*
X97666667Y-140976190D01*
X97952381Y-141547619D02*
X96952381Y-141214286D01*
X97952381Y-140880952D01*
X97952381Y-139976190D02*
X97476190Y-140309524D01*
X97952381Y-140547619D02*
X96952381Y-140547619D01*
X96952381Y-140166666D01*
X97000000Y-140071428D01*
X97047619Y-140023809D01*
X97142857Y-139976190D01*
X97285714Y-139976190D01*
X97380952Y-140023809D01*
X97428571Y-140071428D01*
X97476190Y-140166666D01*
X97476190Y-140547619D01*
X98047619Y-139785714D02*
X98047619Y-139023809D01*
X97666667Y-138833333D02*
X97666667Y-138357142D01*
X97952381Y-138928571D02*
X96952381Y-138595238D01*
X97952381Y-138261904D01*
X97952381Y-137404761D02*
X97952381Y-137976190D01*
X97952381Y-137690476D02*
X96952381Y-137690476D01*
X97095238Y-137785714D01*
X97190476Y-137880952D01*
X97238095Y-137976190D01*
X132952381Y-147619048D02*
X131952381Y-147619048D01*
X132666667Y-147285714D01*
X131952381Y-146952381D01*
X132952381Y-146952381D01*
X132666667Y-146523810D02*
X132666667Y-146047619D01*
X132952381Y-146619048D02*
X131952381Y-146285715D01*
X132952381Y-145952381D01*
X132952381Y-145047619D02*
X132476190Y-145380953D01*
X132952381Y-145619048D02*
X131952381Y-145619048D01*
X131952381Y-145238095D01*
X132000000Y-145142857D01*
X132047619Y-145095238D01*
X132142857Y-145047619D01*
X132285714Y-145047619D01*
X132380952Y-145095238D01*
X132428571Y-145142857D01*
X132476190Y-145238095D01*
X132476190Y-145619048D01*
X133047619Y-144857143D02*
X133047619Y-144095238D01*
X132428571Y-143523809D02*
X132476190Y-143380952D01*
X132523810Y-143333333D01*
X132619048Y-143285714D01*
X132761905Y-143285714D01*
X132857143Y-143333333D01*
X132904762Y-143380952D01*
X132952381Y-143476190D01*
X132952381Y-143857143D01*
X131952381Y-143857143D01*
X131952381Y-143523809D01*
X132000000Y-143428571D01*
X132047619Y-143380952D01*
X132142857Y-143333333D01*
X132238095Y-143333333D01*
X132333333Y-143380952D01*
X132380952Y-143428571D01*
X132428571Y-143523809D01*
X132428571Y-143857143D01*
X132952381Y-142333333D02*
X132952381Y-142904762D01*
X132952381Y-142619048D02*
X131952381Y-142619048D01*
X132095238Y-142714286D01*
X132190476Y-142809524D01*
X132238095Y-142904762D01*
X162952381Y-147619048D02*
X161952381Y-147619048D01*
X162666667Y-147285714D01*
X161952381Y-146952381D01*
X162952381Y-146952381D01*
X162666667Y-146523810D02*
X162666667Y-146047619D01*
X162952381Y-146619048D02*
X161952381Y-146285715D01*
X162952381Y-145952381D01*
X162952381Y-145047619D02*
X162476190Y-145380953D01*
X162952381Y-145619048D02*
X161952381Y-145619048D01*
X161952381Y-145238095D01*
X162000000Y-145142857D01*
X162047619Y-145095238D01*
X162142857Y-145047619D01*
X162285714Y-145047619D01*
X162380952Y-145095238D01*
X162428571Y-145142857D01*
X162476190Y-145238095D01*
X162476190Y-145619048D01*
X163047619Y-144857143D02*
X163047619Y-144095238D01*
X162857143Y-143285714D02*
X162904762Y-143333333D01*
X162952381Y-143476190D01*
X162952381Y-143571428D01*
X162904762Y-143714286D01*
X162809524Y-143809524D01*
X162714286Y-143857143D01*
X162523810Y-143904762D01*
X162380952Y-143904762D01*
X162190476Y-143857143D01*
X162095238Y-143809524D01*
X162000000Y-143714286D01*
X161952381Y-143571428D01*
X161952381Y-143476190D01*
X162000000Y-143333333D01*
X162047619Y-143285714D01*
X162952381Y-142333333D02*
X162952381Y-142904762D01*
X162952381Y-142619048D02*
X161952381Y-142619048D01*
X162095238Y-142714286D01*
X162190476Y-142809524D01*
X162238095Y-142904762D01*
X115452381Y-74547619D02*
X114452381Y-74547619D01*
X114452381Y-74166666D01*
X114500000Y-74071428D01*
X114547619Y-74023809D01*
X114642857Y-73976190D01*
X114785714Y-73976190D01*
X114880952Y-74023809D01*
X114928571Y-74071428D01*
X114976190Y-74166666D01*
X114976190Y-74547619D01*
X115357143Y-72976190D02*
X115404762Y-73023809D01*
X115452381Y-73166666D01*
X115452381Y-73261904D01*
X115404762Y-73404762D01*
X115309524Y-73500000D01*
X115214286Y-73547619D01*
X115023810Y-73595238D01*
X114880952Y-73595238D01*
X114690476Y-73547619D01*
X114595238Y-73500000D01*
X114500000Y-73404762D01*
X114452381Y-73261904D01*
X114452381Y-73166666D01*
X114500000Y-73023809D01*
X114547619Y-72976190D01*
X115547619Y-72785714D02*
X115547619Y-72023809D01*
X115166667Y-71833333D02*
X115166667Y-71357142D01*
X115452381Y-71928571D02*
X114452381Y-71595238D01*
X115452381Y-71261904D01*
X115452381Y-70404761D02*
X115452381Y-70976190D01*
X115452381Y-70690476D02*
X114452381Y-70690476D01*
X114595238Y-70785714D01*
X114690476Y-70880952D01*
X114738095Y-70976190D01*
X115232381Y-89619048D02*
X114232381Y-89619048D01*
X114232381Y-89238095D01*
X114280000Y-89142857D01*
X114327619Y-89095238D01*
X114422857Y-89047619D01*
X114565714Y-89047619D01*
X114660952Y-89095238D01*
X114708571Y-89142857D01*
X114756190Y-89238095D01*
X114756190Y-89619048D01*
X115137143Y-88047619D02*
X115184762Y-88095238D01*
X115232381Y-88238095D01*
X115232381Y-88333333D01*
X115184762Y-88476191D01*
X115089524Y-88571429D01*
X114994286Y-88619048D01*
X114803810Y-88666667D01*
X114660952Y-88666667D01*
X114470476Y-88619048D01*
X114375238Y-88571429D01*
X114280000Y-88476191D01*
X114232381Y-88333333D01*
X114232381Y-88238095D01*
X114280000Y-88095238D01*
X114327619Y-88047619D01*
X115327619Y-87857143D02*
X115327619Y-87095238D01*
X114708571Y-86523809D02*
X114756190Y-86380952D01*
X114803810Y-86333333D01*
X114899048Y-86285714D01*
X115041905Y-86285714D01*
X115137143Y-86333333D01*
X115184762Y-86380952D01*
X115232381Y-86476190D01*
X115232381Y-86857143D01*
X114232381Y-86857143D01*
X114232381Y-86523809D01*
X114280000Y-86428571D01*
X114327619Y-86380952D01*
X114422857Y-86333333D01*
X114518095Y-86333333D01*
X114613333Y-86380952D01*
X114660952Y-86428571D01*
X114708571Y-86523809D01*
X114708571Y-86857143D01*
X115232381Y-85333333D02*
X115232381Y-85904762D01*
X115232381Y-85619048D02*
X114232381Y-85619048D01*
X114375238Y-85714286D01*
X114470476Y-85809524D01*
X114518095Y-85904762D01*
X125232381Y-107119048D02*
X124232381Y-107119048D01*
X124232381Y-106738095D01*
X124280000Y-106642857D01*
X124327619Y-106595238D01*
X124422857Y-106547619D01*
X124565714Y-106547619D01*
X124660952Y-106595238D01*
X124708571Y-106642857D01*
X124756190Y-106738095D01*
X124756190Y-107119048D01*
X125137143Y-105547619D02*
X125184762Y-105595238D01*
X125232381Y-105738095D01*
X125232381Y-105833333D01*
X125184762Y-105976191D01*
X125089524Y-106071429D01*
X124994286Y-106119048D01*
X124803810Y-106166667D01*
X124660952Y-106166667D01*
X124470476Y-106119048D01*
X124375238Y-106071429D01*
X124280000Y-105976191D01*
X124232381Y-105833333D01*
X124232381Y-105738095D01*
X124280000Y-105595238D01*
X124327619Y-105547619D01*
X125327619Y-105357143D02*
X125327619Y-104595238D01*
X125137143Y-103785714D02*
X125184762Y-103833333D01*
X125232381Y-103976190D01*
X125232381Y-104071428D01*
X125184762Y-104214286D01*
X125089524Y-104309524D01*
X124994286Y-104357143D01*
X124803810Y-104404762D01*
X124660952Y-104404762D01*
X124470476Y-104357143D01*
X124375238Y-104309524D01*
X124280000Y-104214286D01*
X124232381Y-104071428D01*
X124232381Y-103976190D01*
X124280000Y-103833333D01*
X124327619Y-103785714D01*
X125232381Y-102833333D02*
X125232381Y-103404762D01*
X125232381Y-103119048D02*
X124232381Y-103119048D01*
X124375238Y-103214286D01*
X124470476Y-103309524D01*
X124518095Y-103404762D01*
X196047619Y-140952381D02*
X196047619Y-139952381D01*
X196428572Y-139952381D01*
X196523810Y-140000000D01*
X196571429Y-140047619D01*
X196619048Y-140142857D01*
X196619048Y-140285714D01*
X196571429Y-140380952D01*
X196523810Y-140428571D01*
X196428572Y-140476190D01*
X196047619Y-140476190D01*
X197190476Y-140952381D02*
X197095238Y-140904762D01*
X197047619Y-140857143D01*
X197000000Y-140761905D01*
X197000000Y-140476190D01*
X197047619Y-140380952D01*
X197095238Y-140333333D01*
X197190476Y-140285714D01*
X197333334Y-140285714D01*
X197428572Y-140333333D01*
X197476191Y-140380952D01*
X197523810Y-140476190D01*
X197523810Y-140761905D01*
X197476191Y-140857143D01*
X197428572Y-140904762D01*
X197333334Y-140952381D01*
X197190476Y-140952381D01*
X197857143Y-140285714D02*
X198047619Y-140952381D01*
X198238096Y-140476190D01*
X198428572Y-140952381D01*
X198619048Y-140285714D01*
X199380953Y-140904762D02*
X199285715Y-140952381D01*
X199095238Y-140952381D01*
X199000000Y-140904762D01*
X198952381Y-140809524D01*
X198952381Y-140428571D01*
X199000000Y-140333333D01*
X199095238Y-140285714D01*
X199285715Y-140285714D01*
X199380953Y-140333333D01*
X199428572Y-140428571D01*
X199428572Y-140523810D01*
X198952381Y-140619048D01*
X199857143Y-140952381D02*
X199857143Y-140285714D01*
X199857143Y-140476190D02*
X199904762Y-140380952D01*
X199952381Y-140333333D01*
X200047619Y-140285714D01*
X200142858Y-140285714D01*
X201000001Y-140952381D02*
X200428572Y-140952381D01*
X200714286Y-140952381D02*
X200714286Y-139952381D01*
X200619048Y-140095238D01*
X200523810Y-140190476D01*
X200428572Y-140238095D01*
X169261904Y-64452381D02*
X169833333Y-64452381D01*
X169547618Y-65452381D02*
X169547618Y-64452381D01*
X169928571Y-65547619D02*
X170690476Y-65547619D01*
X170880952Y-65404762D02*
X171023809Y-65452381D01*
X171261905Y-65452381D01*
X171357143Y-65404762D01*
X171404762Y-65357143D01*
X171452381Y-65261905D01*
X171452381Y-65166667D01*
X171404762Y-65071429D01*
X171357143Y-65023810D01*
X171261905Y-64976190D01*
X171071428Y-64928571D01*
X170976190Y-64880952D01*
X170928571Y-64833333D01*
X170880952Y-64738095D01*
X170880952Y-64642857D01*
X170928571Y-64547619D01*
X170976190Y-64500000D01*
X171071428Y-64452381D01*
X171309524Y-64452381D01*
X171452381Y-64500000D01*
X171738095Y-64785714D02*
X172119047Y-64785714D01*
X171880952Y-64452381D02*
X171880952Y-65309524D01*
X171928571Y-65404762D01*
X172023809Y-65452381D01*
X172119047Y-65452381D01*
X172880953Y-65452381D02*
X172880953Y-64928571D01*
X172833334Y-64833333D01*
X172738096Y-64785714D01*
X172547619Y-64785714D01*
X172452381Y-64833333D01*
X172880953Y-65404762D02*
X172785715Y-65452381D01*
X172547619Y-65452381D01*
X172452381Y-65404762D01*
X172404762Y-65309524D01*
X172404762Y-65214286D01*
X172452381Y-65119048D01*
X172547619Y-65071429D01*
X172785715Y-65071429D01*
X172880953Y-65023810D01*
X173785715Y-64785714D02*
X173785715Y-65595238D01*
X173738096Y-65690476D01*
X173690477Y-65738095D01*
X173595238Y-65785714D01*
X173452381Y-65785714D01*
X173357143Y-65738095D01*
X173785715Y-65404762D02*
X173690477Y-65452381D01*
X173500000Y-65452381D01*
X173404762Y-65404762D01*
X173357143Y-65357143D01*
X173309524Y-65261905D01*
X173309524Y-64976190D01*
X173357143Y-64880952D01*
X173404762Y-64833333D01*
X173500000Y-64785714D01*
X173690477Y-64785714D01*
X173785715Y-64833333D01*
X174642858Y-65404762D02*
X174547620Y-65452381D01*
X174357143Y-65452381D01*
X174261905Y-65404762D01*
X174214286Y-65309524D01*
X174214286Y-64928571D01*
X174261905Y-64833333D01*
X174357143Y-64785714D01*
X174547620Y-64785714D01*
X174642858Y-64833333D01*
X174690477Y-64928571D01*
X174690477Y-65023810D01*
X174214286Y-65119048D01*
X175642858Y-65452381D02*
X175071429Y-65452381D01*
X175357143Y-65452381D02*
X175357143Y-64452381D01*
X175261905Y-64595238D01*
X175166667Y-64690476D01*
X175071429Y-64738095D01*
X124452381Y-118261905D02*
X125261905Y-118261905D01*
X125357143Y-118214286D01*
X125404762Y-118166667D01*
X125452381Y-118071429D01*
X125452381Y-117880952D01*
X125404762Y-117785714D01*
X125357143Y-117738095D01*
X125261905Y-117690476D01*
X124452381Y-117690476D01*
X125452381Y-116690476D02*
X125452381Y-117261905D01*
X125452381Y-116976191D02*
X124452381Y-116976191D01*
X124595238Y-117071429D01*
X124690476Y-117166667D01*
X124738095Y-117261905D01*
X136738095Y-124452381D02*
X136738095Y-125261905D01*
X136785714Y-125357143D01*
X136833333Y-125404762D01*
X136928571Y-125452381D01*
X137119048Y-125452381D01*
X137214286Y-125404762D01*
X137261905Y-125357143D01*
X137309524Y-125261905D01*
X137309524Y-124452381D01*
X137738095Y-124547619D02*
X137785714Y-124500000D01*
X137880952Y-124452381D01*
X138119048Y-124452381D01*
X138214286Y-124500000D01*
X138261905Y-124547619D01*
X138309524Y-124642857D01*
X138309524Y-124738095D01*
X138261905Y-124880952D01*
X137690476Y-125452381D01*
X138309524Y-125452381D01*
X113583334Y-122857143D02*
X113535715Y-122904762D01*
X113392858Y-122952381D01*
X113297620Y-122952381D01*
X113154762Y-122904762D01*
X113059524Y-122809524D01*
X113011905Y-122714286D01*
X112964286Y-122523810D01*
X112964286Y-122380952D01*
X113011905Y-122190476D01*
X113059524Y-122095238D01*
X113154762Y-122000000D01*
X113297620Y-121952381D01*
X113392858Y-121952381D01*
X113535715Y-122000000D01*
X113583334Y-122047619D01*
X113964286Y-122047619D02*
X114011905Y-122000000D01*
X114107143Y-121952381D01*
X114345239Y-121952381D01*
X114440477Y-122000000D01*
X114488096Y-122047619D01*
X114535715Y-122142857D01*
X114535715Y-122238095D01*
X114488096Y-122380952D01*
X113916667Y-122952381D01*
X114535715Y-122952381D01*
X124833334Y-142857143D02*
X124785715Y-142904762D01*
X124642858Y-142952381D01*
X124547620Y-142952381D01*
X124404762Y-142904762D01*
X124309524Y-142809524D01*
X124261905Y-142714286D01*
X124214286Y-142523810D01*
X124214286Y-142380952D01*
X124261905Y-142190476D01*
X124309524Y-142095238D01*
X124404762Y-142000000D01*
X124547620Y-141952381D01*
X124642858Y-141952381D01*
X124785715Y-142000000D01*
X124833334Y-142047619D01*
X125166667Y-141952381D02*
X125785715Y-141952381D01*
X125452381Y-142333333D01*
X125595239Y-142333333D01*
X125690477Y-142380952D01*
X125738096Y-142428571D01*
X125785715Y-142523810D01*
X125785715Y-142761905D01*
X125738096Y-142857143D01*
X125690477Y-142904762D01*
X125595239Y-142952381D01*
X125309524Y-142952381D01*
X125214286Y-142904762D01*
X125166667Y-142857143D01*
X162857143Y-146416666D02*
X162904762Y-146464285D01*
X162952381Y-146607142D01*
X162952381Y-146702380D01*
X162904762Y-146845238D01*
X162809524Y-146940476D01*
X162714286Y-146988095D01*
X162523810Y-147035714D01*
X162380952Y-147035714D01*
X162190476Y-146988095D01*
X162095238Y-146940476D01*
X162000000Y-146845238D01*
X161952381Y-146702380D01*
X161952381Y-146607142D01*
X162000000Y-146464285D01*
X162047619Y-146416666D01*
X162285714Y-145559523D02*
X162952381Y-145559523D01*
X161904762Y-145797619D02*
X162619048Y-146035714D01*
X162619048Y-145416666D01*
X162857143Y-131416666D02*
X162904762Y-131464285D01*
X162952381Y-131607142D01*
X162952381Y-131702380D01*
X162904762Y-131845238D01*
X162809524Y-131940476D01*
X162714286Y-131988095D01*
X162523810Y-132035714D01*
X162380952Y-132035714D01*
X162190476Y-131988095D01*
X162095238Y-131940476D01*
X162000000Y-131845238D01*
X161952381Y-131702380D01*
X161952381Y-131607142D01*
X162000000Y-131464285D01*
X162047619Y-131416666D01*
X161952381Y-130511904D02*
X161952381Y-130988095D01*
X162428571Y-131035714D01*
X162380952Y-130988095D01*
X162333333Y-130892857D01*
X162333333Y-130654761D01*
X162380952Y-130559523D01*
X162428571Y-130511904D01*
X162523810Y-130464285D01*
X162761905Y-130464285D01*
X162857143Y-130511904D01*
X162904762Y-130559523D01*
X162952381Y-130654761D01*
X162952381Y-130892857D01*
X162904762Y-130988095D01*
X162857143Y-131035714D01*
X96083334Y-127857143D02*
X96035715Y-127904762D01*
X95892858Y-127952381D01*
X95797620Y-127952381D01*
X95654762Y-127904762D01*
X95559524Y-127809524D01*
X95511905Y-127714286D01*
X95464286Y-127523810D01*
X95464286Y-127380952D01*
X95511905Y-127190476D01*
X95559524Y-127095238D01*
X95654762Y-127000000D01*
X95797620Y-126952381D01*
X95892858Y-126952381D01*
X96035715Y-127000000D01*
X96083334Y-127047619D01*
X96940477Y-126952381D02*
X96750000Y-126952381D01*
X96654762Y-127000000D01*
X96607143Y-127047619D01*
X96511905Y-127190476D01*
X96464286Y-127380952D01*
X96464286Y-127761905D01*
X96511905Y-127857143D01*
X96559524Y-127904762D01*
X96654762Y-127952381D01*
X96845239Y-127952381D01*
X96940477Y-127904762D01*
X96988096Y-127857143D01*
X97035715Y-127761905D01*
X97035715Y-127523810D01*
X96988096Y-127428571D01*
X96940477Y-127380952D01*
X96845239Y-127333333D01*
X96654762Y-127333333D01*
X96559524Y-127380952D01*
X96511905Y-127428571D01*
X96464286Y-127523810D01*
X158583334Y-97857143D02*
X158535715Y-97904762D01*
X158392858Y-97952381D01*
X158297620Y-97952381D01*
X158154762Y-97904762D01*
X158059524Y-97809524D01*
X158011905Y-97714286D01*
X157964286Y-97523810D01*
X157964286Y-97380952D01*
X158011905Y-97190476D01*
X158059524Y-97095238D01*
X158154762Y-97000000D01*
X158297620Y-96952381D01*
X158392858Y-96952381D01*
X158535715Y-97000000D01*
X158583334Y-97047619D01*
X158916667Y-96952381D02*
X159583334Y-96952381D01*
X159154762Y-97952381D01*
X157333334Y-112857143D02*
X157285715Y-112904762D01*
X157142858Y-112952381D01*
X157047620Y-112952381D01*
X156904762Y-112904762D01*
X156809524Y-112809524D01*
X156761905Y-112714286D01*
X156714286Y-112523810D01*
X156714286Y-112380952D01*
X156761905Y-112190476D01*
X156809524Y-112095238D01*
X156904762Y-112000000D01*
X157047620Y-111952381D01*
X157142858Y-111952381D01*
X157285715Y-112000000D01*
X157333334Y-112047619D01*
X157904762Y-112380952D02*
X157809524Y-112333333D01*
X157761905Y-112285714D01*
X157714286Y-112190476D01*
X157714286Y-112142857D01*
X157761905Y-112047619D01*
X157809524Y-112000000D01*
X157904762Y-111952381D01*
X158095239Y-111952381D01*
X158190477Y-112000000D01*
X158238096Y-112047619D01*
X158285715Y-112142857D01*
X158285715Y-112190476D01*
X158238096Y-112285714D01*
X158190477Y-112333333D01*
X158095239Y-112380952D01*
X157904762Y-112380952D01*
X157809524Y-112428571D01*
X157761905Y-112476190D01*
X157714286Y-112571429D01*
X157714286Y-112761905D01*
X157761905Y-112857143D01*
X157809524Y-112904762D01*
X157904762Y-112952381D01*
X158095239Y-112952381D01*
X158190477Y-112904762D01*
X158238096Y-112857143D01*
X158285715Y-112761905D01*
X158285715Y-112571429D01*
X158238096Y-112476190D01*
X158190477Y-112428571D01*
X158095239Y-112380952D01*
X152333334Y-97857143D02*
X152285715Y-97904762D01*
X152142858Y-97952381D01*
X152047620Y-97952381D01*
X151904762Y-97904762D01*
X151809524Y-97809524D01*
X151761905Y-97714286D01*
X151714286Y-97523810D01*
X151714286Y-97380952D01*
X151761905Y-97190476D01*
X151809524Y-97095238D01*
X151904762Y-97000000D01*
X152047620Y-96952381D01*
X152142858Y-96952381D01*
X152285715Y-97000000D01*
X152333334Y-97047619D01*
X152809524Y-97952381D02*
X153000000Y-97952381D01*
X153095239Y-97904762D01*
X153142858Y-97857143D01*
X153238096Y-97714286D01*
X153285715Y-97523810D01*
X153285715Y-97142857D01*
X153238096Y-97047619D01*
X153190477Y-97000000D01*
X153095239Y-96952381D01*
X152904762Y-96952381D01*
X152809524Y-97000000D01*
X152761905Y-97047619D01*
X152714286Y-97142857D01*
X152714286Y-97380952D01*
X152761905Y-97476190D01*
X152809524Y-97523810D01*
X152904762Y-97571429D01*
X153095239Y-97571429D01*
X153190477Y-97523810D01*
X153238096Y-97476190D01*
X153285715Y-97380952D01*
X145357143Y-84392857D02*
X145404762Y-84440476D01*
X145452381Y-84583333D01*
X145452381Y-84678571D01*
X145404762Y-84821429D01*
X145309524Y-84916667D01*
X145214286Y-84964286D01*
X145023810Y-85011905D01*
X144880952Y-85011905D01*
X144690476Y-84964286D01*
X144595238Y-84916667D01*
X144500000Y-84821429D01*
X144452381Y-84678571D01*
X144452381Y-84583333D01*
X144500000Y-84440476D01*
X144547619Y-84392857D01*
X145452381Y-83440476D02*
X145452381Y-84011905D01*
X145452381Y-83726191D02*
X144452381Y-83726191D01*
X144595238Y-83821429D01*
X144690476Y-83916667D01*
X144738095Y-84011905D01*
X144452381Y-82821429D02*
X144452381Y-82726190D01*
X144500000Y-82630952D01*
X144547619Y-82583333D01*
X144642857Y-82535714D01*
X144833333Y-82488095D01*
X145071429Y-82488095D01*
X145261905Y-82535714D01*
X145357143Y-82583333D01*
X145404762Y-82630952D01*
X145452381Y-82726190D01*
X145452381Y-82821429D01*
X145404762Y-82916667D01*
X145357143Y-82964286D01*
X145261905Y-83011905D01*
X145071429Y-83059524D01*
X144833333Y-83059524D01*
X144642857Y-83011905D01*
X144547619Y-82964286D01*
X144500000Y-82916667D01*
X144452381Y-82821429D01*
X145357143Y-71892857D02*
X145404762Y-71940476D01*
X145452381Y-72083333D01*
X145452381Y-72178571D01*
X145404762Y-72321429D01*
X145309524Y-72416667D01*
X145214286Y-72464286D01*
X145023810Y-72511905D01*
X144880952Y-72511905D01*
X144690476Y-72464286D01*
X144595238Y-72416667D01*
X144500000Y-72321429D01*
X144452381Y-72178571D01*
X144452381Y-72083333D01*
X144500000Y-71940476D01*
X144547619Y-71892857D01*
X145452381Y-70940476D02*
X145452381Y-71511905D01*
X145452381Y-71226191D02*
X144452381Y-71226191D01*
X144595238Y-71321429D01*
X144690476Y-71416667D01*
X144738095Y-71511905D01*
X145452381Y-69988095D02*
X145452381Y-70559524D01*
X145452381Y-70273810D02*
X144452381Y-70273810D01*
X144595238Y-70369048D01*
X144690476Y-70464286D01*
X144738095Y-70559524D01*
X102857143Y-95642857D02*
X102904762Y-95690476D01*
X102952381Y-95833333D01*
X102952381Y-95928571D01*
X102904762Y-96071429D01*
X102809524Y-96166667D01*
X102714286Y-96214286D01*
X102523810Y-96261905D01*
X102380952Y-96261905D01*
X102190476Y-96214286D01*
X102095238Y-96166667D01*
X102000000Y-96071429D01*
X101952381Y-95928571D01*
X101952381Y-95833333D01*
X102000000Y-95690476D01*
X102047619Y-95642857D01*
X102952381Y-94690476D02*
X102952381Y-95261905D01*
X102952381Y-94976191D02*
X101952381Y-94976191D01*
X102095238Y-95071429D01*
X102190476Y-95166667D01*
X102238095Y-95261905D01*
X102047619Y-94309524D02*
X102000000Y-94261905D01*
X101952381Y-94166667D01*
X101952381Y-93928571D01*
X102000000Y-93833333D01*
X102047619Y-93785714D01*
X102142857Y-93738095D01*
X102238095Y-93738095D01*
X102380952Y-93785714D01*
X102952381Y-94357143D01*
X102952381Y-93738095D01*
X66857143Y-140357143D02*
X66809524Y-140404762D01*
X66666667Y-140452381D01*
X66571429Y-140452381D01*
X66428571Y-140404762D01*
X66333333Y-140309524D01*
X66285714Y-140214286D01*
X66238095Y-140023810D01*
X66238095Y-139880952D01*
X66285714Y-139690476D01*
X66333333Y-139595238D01*
X66428571Y-139500000D01*
X66571429Y-139452381D01*
X66666667Y-139452381D01*
X66809524Y-139500000D01*
X66857143Y-139547619D01*
X67809524Y-140452381D02*
X67238095Y-140452381D01*
X67523809Y-140452381D02*
X67523809Y-139452381D01*
X67428571Y-139595238D01*
X67333333Y-139690476D01*
X67238095Y-139738095D01*
X68142857Y-139452381D02*
X68761905Y-139452381D01*
X68428571Y-139833333D01*
X68571429Y-139833333D01*
X68666667Y-139880952D01*
X68714286Y-139928571D01*
X68761905Y-140023810D01*
X68761905Y-140261905D01*
X68714286Y-140357143D01*
X68666667Y-140404762D01*
X68571429Y-140452381D01*
X68285714Y-140452381D01*
X68190476Y-140404762D01*
X68142857Y-140357143D01*
X70607143Y-107857143D02*
X70559524Y-107904762D01*
X70416667Y-107952381D01*
X70321429Y-107952381D01*
X70178571Y-107904762D01*
X70083333Y-107809524D01*
X70035714Y-107714286D01*
X69988095Y-107523810D01*
X69988095Y-107380952D01*
X70035714Y-107190476D01*
X70083333Y-107095238D01*
X70178571Y-107000000D01*
X70321429Y-106952381D01*
X70416667Y-106952381D01*
X70559524Y-107000000D01*
X70607143Y-107047619D01*
X71559524Y-107952381D02*
X70988095Y-107952381D01*
X71273809Y-107952381D02*
X71273809Y-106952381D01*
X71178571Y-107095238D01*
X71083333Y-107190476D01*
X70988095Y-107238095D01*
X72464286Y-106952381D02*
X71988095Y-106952381D01*
X71940476Y-107428571D01*
X71988095Y-107380952D01*
X72083333Y-107333333D01*
X72321429Y-107333333D01*
X72416667Y-107380952D01*
X72464286Y-107428571D01*
X72511905Y-107523810D01*
X72511905Y-107761905D01*
X72464286Y-107857143D01*
X72416667Y-107904762D01*
X72321429Y-107952381D01*
X72083333Y-107952381D01*
X71988095Y-107904762D01*
X71940476Y-107857143D01*
X80607143Y-112857143D02*
X80559524Y-112904762D01*
X80416667Y-112952381D01*
X80321429Y-112952381D01*
X80178571Y-112904762D01*
X80083333Y-112809524D01*
X80035714Y-112714286D01*
X79988095Y-112523810D01*
X79988095Y-112380952D01*
X80035714Y-112190476D01*
X80083333Y-112095238D01*
X80178571Y-112000000D01*
X80321429Y-111952381D01*
X80416667Y-111952381D01*
X80559524Y-112000000D01*
X80607143Y-112047619D01*
X81559524Y-112952381D02*
X80988095Y-112952381D01*
X81273809Y-112952381D02*
X81273809Y-111952381D01*
X81178571Y-112095238D01*
X81083333Y-112190476D01*
X80988095Y-112238095D01*
X82416667Y-111952381D02*
X82226190Y-111952381D01*
X82130952Y-112000000D01*
X82083333Y-112047619D01*
X81988095Y-112190476D01*
X81940476Y-112380952D01*
X81940476Y-112761905D01*
X81988095Y-112857143D01*
X82035714Y-112904762D01*
X82130952Y-112952381D01*
X82321429Y-112952381D01*
X82416667Y-112904762D01*
X82464286Y-112857143D01*
X82511905Y-112761905D01*
X82511905Y-112523810D01*
X82464286Y-112428571D01*
X82416667Y-112380952D01*
X82321429Y-112333333D01*
X82130952Y-112333333D01*
X82035714Y-112380952D01*
X81988095Y-112428571D01*
X81940476Y-112523810D01*
X170357143Y-93142857D02*
X170404762Y-93190476D01*
X170452381Y-93333333D01*
X170452381Y-93428571D01*
X170404762Y-93571429D01*
X170309524Y-93666667D01*
X170214286Y-93714286D01*
X170023810Y-93761905D01*
X169880952Y-93761905D01*
X169690476Y-93714286D01*
X169595238Y-93666667D01*
X169500000Y-93571429D01*
X169452381Y-93428571D01*
X169452381Y-93333333D01*
X169500000Y-93190476D01*
X169547619Y-93142857D01*
X170452381Y-92190476D02*
X170452381Y-92761905D01*
X170452381Y-92476191D02*
X169452381Y-92476191D01*
X169595238Y-92571429D01*
X169690476Y-92666667D01*
X169738095Y-92761905D01*
X169452381Y-91857143D02*
X169452381Y-91190476D01*
X170452381Y-91619048D01*
X192857143Y-146892857D02*
X192904762Y-146940476D01*
X192952381Y-147083333D01*
X192952381Y-147178571D01*
X192904762Y-147321429D01*
X192809524Y-147416667D01*
X192714286Y-147464286D01*
X192523810Y-147511905D01*
X192380952Y-147511905D01*
X192190476Y-147464286D01*
X192095238Y-147416667D01*
X192000000Y-147321429D01*
X191952381Y-147178571D01*
X191952381Y-147083333D01*
X192000000Y-146940476D01*
X192047619Y-146892857D01*
X192952381Y-145940476D02*
X192952381Y-146511905D01*
X192952381Y-146226191D02*
X191952381Y-146226191D01*
X192095238Y-146321429D01*
X192190476Y-146416667D01*
X192238095Y-146511905D01*
X192380952Y-145369048D02*
X192333333Y-145464286D01*
X192285714Y-145511905D01*
X192190476Y-145559524D01*
X192142857Y-145559524D01*
X192047619Y-145511905D01*
X192000000Y-145464286D01*
X191952381Y-145369048D01*
X191952381Y-145178571D01*
X192000000Y-145083333D01*
X192047619Y-145035714D01*
X192142857Y-144988095D01*
X192190476Y-144988095D01*
X192285714Y-145035714D01*
X192333333Y-145083333D01*
X192380952Y-145178571D01*
X192380952Y-145369048D01*
X192428571Y-145464286D01*
X192476190Y-145511905D01*
X192571429Y-145559524D01*
X192761905Y-145559524D01*
X192857143Y-145511905D01*
X192904762Y-145464286D01*
X192952381Y-145369048D01*
X192952381Y-145178571D01*
X192904762Y-145083333D01*
X192857143Y-145035714D01*
X192761905Y-144988095D01*
X192571429Y-144988095D01*
X192476190Y-145035714D01*
X192428571Y-145083333D01*
X192380952Y-145178571D01*
X170607143Y-125357143D02*
X170559524Y-125404762D01*
X170416667Y-125452381D01*
X170321429Y-125452381D01*
X170178571Y-125404762D01*
X170083333Y-125309524D01*
X170035714Y-125214286D01*
X169988095Y-125023810D01*
X169988095Y-124880952D01*
X170035714Y-124690476D01*
X170083333Y-124595238D01*
X170178571Y-124500000D01*
X170321429Y-124452381D01*
X170416667Y-124452381D01*
X170559524Y-124500000D01*
X170607143Y-124547619D01*
X171559524Y-125452381D02*
X170988095Y-125452381D01*
X171273809Y-125452381D02*
X171273809Y-124452381D01*
X171178571Y-124595238D01*
X171083333Y-124690476D01*
X170988095Y-124738095D01*
X172035714Y-125452381D02*
X172226190Y-125452381D01*
X172321429Y-125404762D01*
X172369048Y-125357143D01*
X172464286Y-125214286D01*
X172511905Y-125023810D01*
X172511905Y-124642857D01*
X172464286Y-124547619D01*
X172416667Y-124500000D01*
X172321429Y-124452381D01*
X172130952Y-124452381D01*
X172035714Y-124500000D01*
X171988095Y-124547619D01*
X171940476Y-124642857D01*
X171940476Y-124880952D01*
X171988095Y-124976190D01*
X172035714Y-125023810D01*
X172130952Y-125071429D01*
X172321429Y-125071429D01*
X172416667Y-125023810D01*
X172464286Y-124976190D01*
X172511905Y-124880952D01*
X193107143Y-127857143D02*
X193059524Y-127904762D01*
X192916667Y-127952381D01*
X192821429Y-127952381D01*
X192678571Y-127904762D01*
X192583333Y-127809524D01*
X192535714Y-127714286D01*
X192488095Y-127523810D01*
X192488095Y-127380952D01*
X192535714Y-127190476D01*
X192583333Y-127095238D01*
X192678571Y-127000000D01*
X192821429Y-126952381D01*
X192916667Y-126952381D01*
X193059524Y-127000000D01*
X193107143Y-127047619D01*
X193440476Y-126952381D02*
X194059524Y-126952381D01*
X193726190Y-127333333D01*
X193869048Y-127333333D01*
X193964286Y-127380952D01*
X194011905Y-127428571D01*
X194059524Y-127523810D01*
X194059524Y-127761905D01*
X194011905Y-127857143D01*
X193964286Y-127904762D01*
X193869048Y-127952381D01*
X193583333Y-127952381D01*
X193488095Y-127904762D01*
X193440476Y-127857143D01*
X194440476Y-127047619D02*
X194488095Y-127000000D01*
X194583333Y-126952381D01*
X194821429Y-126952381D01*
X194916667Y-127000000D01*
X194964286Y-127047619D01*
X195011905Y-127142857D01*
X195011905Y-127238095D01*
X194964286Y-127380952D01*
X194392857Y-127952381D01*
X195011905Y-127952381D01*
X111976191Y-92952381D02*
X111976191Y-91952381D01*
X113023810Y-92952381D02*
X112690476Y-92476190D01*
X112452381Y-92952381D02*
X112452381Y-91952381D01*
X112833334Y-91952381D01*
X112928572Y-92000000D01*
X112976191Y-92047619D01*
X113023810Y-92142857D01*
X113023810Y-92285714D01*
X112976191Y-92380952D01*
X112928572Y-92428571D01*
X112833334Y-92476190D01*
X112452381Y-92476190D01*
X113214286Y-93047619D02*
X113976191Y-93047619D01*
X114214286Y-92952381D02*
X114214286Y-91952381D01*
X114214286Y-92428571D02*
X114785715Y-92428571D01*
X114785715Y-92952381D02*
X114785715Y-91952381D01*
X115261905Y-92952381D02*
X115261905Y-92285714D01*
X115261905Y-91952381D02*
X115214286Y-92000000D01*
X115261905Y-92047619D01*
X115309524Y-92000000D01*
X115261905Y-91952381D01*
X115261905Y-92047619D01*
X116166667Y-92285714D02*
X116166667Y-93095238D01*
X116119048Y-93190476D01*
X116071429Y-93238095D01*
X115976190Y-93285714D01*
X115833333Y-93285714D01*
X115738095Y-93238095D01*
X116166667Y-92904762D02*
X116071429Y-92952381D01*
X115880952Y-92952381D01*
X115785714Y-92904762D01*
X115738095Y-92857143D01*
X115690476Y-92761905D01*
X115690476Y-92476190D01*
X115738095Y-92380952D01*
X115785714Y-92333333D01*
X115880952Y-92285714D01*
X116071429Y-92285714D01*
X116166667Y-92333333D01*
X116642857Y-92952381D02*
X116642857Y-91952381D01*
X117071429Y-92952381D02*
X117071429Y-92428571D01*
X117023810Y-92333333D01*
X116928572Y-92285714D01*
X116785714Y-92285714D01*
X116690476Y-92333333D01*
X116642857Y-92380952D01*
X118071429Y-92952381D02*
X117500000Y-92952381D01*
X117785714Y-92952381D02*
X117785714Y-91952381D01*
X117690476Y-92095238D01*
X117595238Y-92190476D01*
X117500000Y-92238095D01*
X167261905Y-95452381D02*
X167261905Y-94452381D01*
X168309524Y-95452381D02*
X167976190Y-94976190D01*
X167738095Y-95452381D02*
X167738095Y-94452381D01*
X168119048Y-94452381D01*
X168214286Y-94500000D01*
X168261905Y-94547619D01*
X168309524Y-94642857D01*
X168309524Y-94785714D01*
X168261905Y-94880952D01*
X168214286Y-94928571D01*
X168119048Y-94976190D01*
X167738095Y-94976190D01*
X168500000Y-95547619D02*
X169261905Y-95547619D01*
X169976191Y-95452381D02*
X169500000Y-95452381D01*
X169500000Y-94452381D01*
X170452381Y-95452381D02*
X170357143Y-95404762D01*
X170309524Y-95357143D01*
X170261905Y-95261905D01*
X170261905Y-94976190D01*
X170309524Y-94880952D01*
X170357143Y-94833333D01*
X170452381Y-94785714D01*
X170595239Y-94785714D01*
X170690477Y-94833333D01*
X170738096Y-94880952D01*
X170785715Y-94976190D01*
X170785715Y-95261905D01*
X170738096Y-95357143D01*
X170690477Y-95404762D01*
X170595239Y-95452381D01*
X170452381Y-95452381D01*
X171119048Y-94785714D02*
X171309524Y-95452381D01*
X171500001Y-94976190D01*
X171690477Y-95452381D01*
X171880953Y-94785714D01*
X172785715Y-95452381D02*
X172214286Y-95452381D01*
X172500000Y-95452381D02*
X172500000Y-94452381D01*
X172404762Y-94595238D01*
X172309524Y-94690476D01*
X172214286Y-94738095D01*
X92952381Y-84452381D02*
X92476190Y-84785715D01*
X92952381Y-85023810D02*
X91952381Y-85023810D01*
X91952381Y-84642857D01*
X92000000Y-84547619D01*
X92047619Y-84500000D01*
X92142857Y-84452381D01*
X92285714Y-84452381D01*
X92380952Y-84500000D01*
X92428571Y-84547619D01*
X92476190Y-84642857D01*
X92476190Y-85023810D01*
X92904762Y-83642857D02*
X92952381Y-83738095D01*
X92952381Y-83928572D01*
X92904762Y-84023810D01*
X92809524Y-84071429D01*
X92428571Y-84071429D01*
X92333333Y-84023810D01*
X92285714Y-83928572D01*
X92285714Y-83738095D01*
X92333333Y-83642857D01*
X92428571Y-83595238D01*
X92523810Y-83595238D01*
X92619048Y-84071429D01*
X92285714Y-82738095D02*
X93095238Y-82738095D01*
X93190476Y-82785714D01*
X93238095Y-82833333D01*
X93285714Y-82928572D01*
X93285714Y-83071429D01*
X93238095Y-83166667D01*
X92904762Y-82738095D02*
X92952381Y-82833333D01*
X92952381Y-83023810D01*
X92904762Y-83119048D01*
X92857143Y-83166667D01*
X92761905Y-83214286D01*
X92476190Y-83214286D01*
X92380952Y-83166667D01*
X92333333Y-83119048D01*
X92285714Y-83023810D01*
X92285714Y-82833333D01*
X92333333Y-82738095D01*
X92952381Y-82261905D02*
X92285714Y-82261905D01*
X91952381Y-82261905D02*
X92000000Y-82309524D01*
X92047619Y-82261905D01*
X92000000Y-82214286D01*
X91952381Y-82261905D01*
X92047619Y-82261905D01*
X92904762Y-81833334D02*
X92952381Y-81738096D01*
X92952381Y-81547620D01*
X92904762Y-81452381D01*
X92809524Y-81404762D01*
X92761905Y-81404762D01*
X92666667Y-81452381D01*
X92619048Y-81547620D01*
X92619048Y-81690477D01*
X92571429Y-81785715D01*
X92476190Y-81833334D01*
X92428571Y-81833334D01*
X92333333Y-81785715D01*
X92285714Y-81690477D01*
X92285714Y-81547620D01*
X92333333Y-81452381D01*
X92285714Y-81119048D02*
X92285714Y-80738096D01*
X91952381Y-80976191D02*
X92809524Y-80976191D01*
X92904762Y-80928572D01*
X92952381Y-80833334D01*
X92952381Y-80738096D01*
X92904762Y-80023809D02*
X92952381Y-80119047D01*
X92952381Y-80309524D01*
X92904762Y-80404762D01*
X92809524Y-80452381D01*
X92428571Y-80452381D01*
X92333333Y-80404762D01*
X92285714Y-80309524D01*
X92285714Y-80119047D01*
X92333333Y-80023809D01*
X92428571Y-79976190D01*
X92523810Y-79976190D01*
X92619048Y-80452381D01*
X92952381Y-79547619D02*
X92285714Y-79547619D01*
X92476190Y-79547619D02*
X92380952Y-79500000D01*
X92333333Y-79452381D01*
X92285714Y-79357143D01*
X92285714Y-79261904D01*
X93047619Y-79166666D02*
X93047619Y-78404761D01*
X92428571Y-77833332D02*
X92476190Y-77690475D01*
X92523810Y-77642856D01*
X92619048Y-77595237D01*
X92761905Y-77595237D01*
X92857143Y-77642856D01*
X92904762Y-77690475D01*
X92952381Y-77785713D01*
X92952381Y-78166666D01*
X91952381Y-78166666D01*
X91952381Y-77833332D01*
X92000000Y-77738094D01*
X92047619Y-77690475D01*
X92142857Y-77642856D01*
X92238095Y-77642856D01*
X92333333Y-77690475D01*
X92380952Y-77738094D01*
X92428571Y-77833332D01*
X92428571Y-78166666D01*
X92285714Y-76738094D02*
X92952381Y-76738094D01*
X92285714Y-77166666D02*
X92809524Y-77166666D01*
X92904762Y-77119047D01*
X92952381Y-77023809D01*
X92952381Y-76880951D01*
X92904762Y-76785713D01*
X92857143Y-76738094D01*
X92904762Y-76309523D02*
X92952381Y-76214285D01*
X92952381Y-76023809D01*
X92904762Y-75928570D01*
X92809524Y-75880951D01*
X92761905Y-75880951D01*
X92666667Y-75928570D01*
X92619048Y-76023809D01*
X92619048Y-76166666D01*
X92571429Y-76261904D01*
X92476190Y-76309523D01*
X92428571Y-76309523D01*
X92333333Y-76261904D01*
X92285714Y-76166666D01*
X92285714Y-76023809D01*
X92333333Y-75928570D01*
X92952381Y-74928570D02*
X92952381Y-75499999D01*
X92952381Y-75214285D02*
X91952381Y-75214285D01*
X92095238Y-75309523D01*
X92190476Y-75404761D01*
X92238095Y-75499999D01*
X76738095Y-149452381D02*
X76738095Y-150261905D01*
X76785714Y-150357143D01*
X76833333Y-150404762D01*
X76928571Y-150452381D01*
X77119048Y-150452381D01*
X77214286Y-150404762D01*
X77261905Y-150357143D01*
X77309524Y-150261905D01*
X77309524Y-149452381D01*
X77690476Y-149452381D02*
X78309524Y-149452381D01*
X77976190Y-149833333D01*
X78119048Y-149833333D01*
X78214286Y-149880952D01*
X78261905Y-149928571D01*
X78309524Y-150023810D01*
X78309524Y-150261905D01*
X78261905Y-150357143D01*
X78214286Y-150404762D01*
X78119048Y-150452381D01*
X77833333Y-150452381D01*
X77738095Y-150404762D01*
X77690476Y-150357143D01*
X107833333Y-147904762D02*
X107976190Y-147952381D01*
X108214286Y-147952381D01*
X108309524Y-147904762D01*
X108357143Y-147857143D01*
X108404762Y-147761905D01*
X108404762Y-147666667D01*
X108357143Y-147571429D01*
X108309524Y-147523810D01*
X108214286Y-147476190D01*
X108023809Y-147428571D01*
X107928571Y-147380952D01*
X107880952Y-147333333D01*
X107833333Y-147238095D01*
X107833333Y-147142857D01*
X107880952Y-147047619D01*
X107928571Y-147000000D01*
X108023809Y-146952381D01*
X108261905Y-146952381D01*
X108404762Y-147000000D01*
X108738095Y-147285714D02*
X108976190Y-147952381D01*
X109214286Y-147285714D02*
X108976190Y-147952381D01*
X108880952Y-148190476D01*
X108833333Y-148238095D01*
X108738095Y-148285714D01*
X109547619Y-147904762D02*
X109642857Y-147952381D01*
X109833333Y-147952381D01*
X109928572Y-147904762D01*
X109976191Y-147809524D01*
X109976191Y-147761905D01*
X109928572Y-147666667D01*
X109833333Y-147619048D01*
X109690476Y-147619048D01*
X109595238Y-147571429D01*
X109547619Y-147476190D01*
X109547619Y-147428571D01*
X109595238Y-147333333D01*
X109690476Y-147285714D01*
X109833333Y-147285714D01*
X109928572Y-147333333D01*
X110261905Y-147285714D02*
X110642857Y-147285714D01*
X110404762Y-146952381D02*
X110404762Y-147809524D01*
X110452381Y-147904762D01*
X110547619Y-147952381D01*
X110642857Y-147952381D01*
X111357144Y-147904762D02*
X111261906Y-147952381D01*
X111071429Y-147952381D01*
X110976191Y-147904762D01*
X110928572Y-147809524D01*
X110928572Y-147428571D01*
X110976191Y-147333333D01*
X111071429Y-147285714D01*
X111261906Y-147285714D01*
X111357144Y-147333333D01*
X111404763Y-147428571D01*
X111404763Y-147523810D01*
X110928572Y-147619048D01*
X111833334Y-147952381D02*
X111833334Y-147285714D01*
X111833334Y-147380952D02*
X111880953Y-147333333D01*
X111976191Y-147285714D01*
X112119049Y-147285714D01*
X112214287Y-147333333D01*
X112261906Y-147428571D01*
X112261906Y-147952381D01*
X112261906Y-147428571D02*
X112309525Y-147333333D01*
X112404763Y-147285714D01*
X112547620Y-147285714D01*
X112642858Y-147333333D01*
X112690477Y-147428571D01*
X112690477Y-147952381D01*
X112928572Y-148047619D02*
X113690477Y-148047619D01*
X114261906Y-147428571D02*
X114404763Y-147476190D01*
X114452382Y-147523810D01*
X114500001Y-147619048D01*
X114500001Y-147761905D01*
X114452382Y-147857143D01*
X114404763Y-147904762D01*
X114309525Y-147952381D01*
X113928572Y-147952381D01*
X113928572Y-146952381D01*
X114261906Y-146952381D01*
X114357144Y-147000000D01*
X114404763Y-147047619D01*
X114452382Y-147142857D01*
X114452382Y-147238095D01*
X114404763Y-147333333D01*
X114357144Y-147380952D01*
X114261906Y-147428571D01*
X113928572Y-147428571D01*
X115357144Y-147285714D02*
X115357144Y-147952381D01*
X114928572Y-147285714D02*
X114928572Y-147809524D01*
X114976191Y-147904762D01*
X115071429Y-147952381D01*
X115214287Y-147952381D01*
X115309525Y-147904762D01*
X115357144Y-147857143D01*
X115785715Y-147904762D02*
X115880953Y-147952381D01*
X116071429Y-147952381D01*
X116166668Y-147904762D01*
X116214287Y-147809524D01*
X116214287Y-147761905D01*
X116166668Y-147666667D01*
X116071429Y-147619048D01*
X115928572Y-147619048D01*
X115833334Y-147571429D01*
X115785715Y-147476190D01*
X115785715Y-147428571D01*
X115833334Y-147333333D01*
X115928572Y-147285714D01*
X116071429Y-147285714D01*
X116166668Y-147333333D01*
X117166668Y-147952381D02*
X116595239Y-147952381D01*
X116880953Y-147952381D02*
X116880953Y-146952381D01*
X116785715Y-147095238D01*
X116690477Y-147190476D01*
X116595239Y-147238095D01*
X198583334Y-136657143D02*
X198535715Y-136704762D01*
X198392858Y-136752381D01*
X198297620Y-136752381D01*
X198154762Y-136704762D01*
X198059524Y-136609524D01*
X198011905Y-136514286D01*
X197964286Y-136323810D01*
X197964286Y-136180952D01*
X198011905Y-135990476D01*
X198059524Y-135895238D01*
X198154762Y-135800000D01*
X198297620Y-135752381D01*
X198392858Y-135752381D01*
X198535715Y-135800000D01*
X198583334Y-135847619D01*
X199535715Y-136752381D02*
X198964286Y-136752381D01*
X199250000Y-136752381D02*
X199250000Y-135752381D01*
X199154762Y-135895238D01*
X199059524Y-135990476D01*
X198964286Y-136038095D01*
X190801428Y-96732381D02*
X190801428Y-95732381D01*
X191039523Y-95732381D01*
X191182381Y-95780000D01*
X191277619Y-95875238D01*
X191325238Y-95970476D01*
X191372857Y-96160952D01*
X191372857Y-96303810D01*
X191325238Y-96494286D01*
X191277619Y-96589524D01*
X191182381Y-96684762D01*
X191039523Y-96732381D01*
X190801428Y-96732381D01*
X192182381Y-96684762D02*
X192087143Y-96732381D01*
X191896666Y-96732381D01*
X191801428Y-96684762D01*
X191753809Y-96589524D01*
X191753809Y-96208571D01*
X191801428Y-96113333D01*
X191896666Y-96065714D01*
X192087143Y-96065714D01*
X192182381Y-96113333D01*
X192230000Y-96208571D01*
X192230000Y-96303810D01*
X191753809Y-96399048D01*
X193087143Y-96684762D02*
X192991905Y-96732381D01*
X192801428Y-96732381D01*
X192706190Y-96684762D01*
X192658571Y-96637143D01*
X192610952Y-96541905D01*
X192610952Y-96256190D01*
X192658571Y-96160952D01*
X192706190Y-96113333D01*
X192801428Y-96065714D01*
X192991905Y-96065714D01*
X193087143Y-96113333D01*
X193658571Y-96732381D02*
X193563333Y-96684762D01*
X193515714Y-96637143D01*
X193468095Y-96541905D01*
X193468095Y-96256190D01*
X193515714Y-96160952D01*
X193563333Y-96113333D01*
X193658571Y-96065714D01*
X193801429Y-96065714D01*
X193896667Y-96113333D01*
X193944286Y-96160952D01*
X193991905Y-96256190D01*
X193991905Y-96541905D01*
X193944286Y-96637143D01*
X193896667Y-96684762D01*
X193801429Y-96732381D01*
X193658571Y-96732381D01*
X194849048Y-96732381D02*
X194849048Y-95732381D01*
X194849048Y-96684762D02*
X194753810Y-96732381D01*
X194563333Y-96732381D01*
X194468095Y-96684762D01*
X194420476Y-96637143D01*
X194372857Y-96541905D01*
X194372857Y-96256190D01*
X194420476Y-96160952D01*
X194468095Y-96113333D01*
X194563333Y-96065714D01*
X194753810Y-96065714D01*
X194849048Y-96113333D01*
X195706191Y-96684762D02*
X195610953Y-96732381D01*
X195420476Y-96732381D01*
X195325238Y-96684762D01*
X195277619Y-96589524D01*
X195277619Y-96208571D01*
X195325238Y-96113333D01*
X195420476Y-96065714D01*
X195610953Y-96065714D01*
X195706191Y-96113333D01*
X195753810Y-96208571D01*
X195753810Y-96303810D01*
X195277619Y-96399048D01*
X196706191Y-96732381D02*
X196134762Y-96732381D01*
X196420476Y-96732381D02*
X196420476Y-95732381D01*
X196325238Y-95875238D01*
X196230000Y-95970476D01*
X196134762Y-96018095D01*
X154238095Y-61732381D02*
X154238095Y-62541905D01*
X154285714Y-62637143D01*
X154333333Y-62684762D01*
X154428571Y-62732381D01*
X154619048Y-62732381D01*
X154714286Y-62684762D01*
X154761905Y-62637143D01*
X154809524Y-62541905D01*
X154809524Y-61732381D01*
X155714286Y-62065714D02*
X155714286Y-62732381D01*
X155476190Y-61684762D02*
X155238095Y-62399048D01*
X155857143Y-62399048D01*
M02*
